<?xml version="1.0" encoding="UTF-8" standalone="no"?>
<!-- Created with Inkscape (http://www.inkscape.org/) -->

<svg
   xmlns:dc="http://purl.org/dc/elements/1.1/"
   xmlns:cc="http://creativecommons.org/ns#"
   xmlns:rdf="http://www.w3.org/1999/02/22-rdf-syntax-ns#"
   xmlns:svg="http://www.w3.org/2000/svg"
   xmlns="http://www.w3.org/2000/svg"
   xmlns:sodipodi="http://sodipodi.sourceforge.net/DTD/sodipodi-0.dtd"
   xmlns:inkscape="http://www.inkscape.org/namespaces/inkscape"
   version="1.1"
   id="svg2"
   xml:space="preserve"
   width="640"
   height="640"
   viewBox="0 0 640 640"
   sodipodi:docname="scheme.pdf"
   inkscape:version="0.92.4 (5da689c313, 2019-01-14)"><metadata
     id="metadata8"><rdf:RDF><cc:Work
         rdf:about=""><dc:format>image/svg+xml</dc:format><dc:type
           rdf:resource="http://purl.org/dc/dcmitype/StillImage" /><dc:title></dc:title></cc:Work></rdf:RDF></metadata><defs
     id="defs6"><marker
       inkscape:isstock="true"
       style="overflow:visible;"
       id="marker3408"
       refX="0.0"
       refY="0.0"
       orient="auto"
       inkscape:stockid="Arrow1Send"><path
         transform="scale(0.2) rotate(180) translate(6,0)"
         style="fill-rule:evenodd;stroke:#000000;stroke-width:1pt;stroke-opacity:1;fill:#000000;fill-opacity:1"
         d="M 0.0,0.0 L 5.0,-5.0 L -12.5,0.0 L 5.0,5.0 L 0.0,0.0 z "
         id="path3406" /></marker><marker
       inkscape:stockid="Arrow1Send"
       orient="auto"
       refY="0.0"
       refX="0.0"
       id="Arrow1Send"
       style="overflow:visible;"
       inkscape:isstock="true"
       inkscape:collect="always"><path
         id="path1196"
         d="M 0.0,0.0 L 5.0,-5.0 L -12.5,0.0 L 5.0,5.0 L 0.0,0.0 z "
         style="fill-rule:evenodd;stroke:#000000;stroke-width:1pt;stroke-opacity:1;fill:#000000;fill-opacity:1"
         transform="scale(0.2) rotate(180) translate(6,0)" /></marker><marker
       inkscape:stockid="Arrow1Mend"
       orient="auto"
       refY="0.0"
       refX="0.0"
       id="Arrow1Mend"
       style="overflow:visible;"
       inkscape:isstock="true"><path
         id="path1190"
         d="M 0.0,0.0 L 5.0,-5.0 L -12.5,0.0 L 5.0,5.0 L 0.0,0.0 z "
         style="fill-rule:evenodd;stroke:#000000;stroke-width:1pt;stroke-opacity:1;fill:#000000;fill-opacity:1"
         transform="scale(0.4) rotate(180) translate(10,0)" /></marker><marker
       inkscape:stockid="Arrow2Lend"
       orient="auto"
       refY="0.0"
       refX="0.0"
       id="Arrow2Lend"
       style="overflow:visible;"
       inkscape:isstock="true"><path
         id="path1202"
         style="fill-rule:evenodd;stroke-width:0.625;stroke-linejoin:round;stroke:#4d4d4d;stroke-opacity:1;fill:#4d4d4d;fill-opacity:1"
         d="M 8.7185878,4.0337352 L -2.2072895,0.016013256 L 8.7185884,-4.0017078 C 6.9730900,-1.6296469 6.9831476,1.6157441 8.7185878,4.0337352 z "
         transform="scale(1.1) rotate(180) translate(1,0)" /></marker><marker
       inkscape:stockid="Arrow1Send"
       orient="auto"
       refY="0"
       refX="0"
       id="Arrow1Send-7"
       style="overflow:visible"
       inkscape:isstock="true"><path
         inkscape:connector-curvature="0"
         id="path1196-5"
         d="M 0,0 5,-5 -12.5,0 5,5 Z"
         style="fill:#4d4d4d;fill-opacity:1;fill-rule:evenodd;stroke:#4d4d4d;stroke-width:1.00000003pt;stroke-opacity:1"
         transform="matrix(-0.2,0,0,-0.2,-1.2,0)" /></marker><marker
       inkscape:stockid="Arrow1Mend"
       orient="auto"
       refY="0"
       refX="0"
       id="Arrow1Mend-1"
       style="overflow:visible"
       inkscape:isstock="true"><path
         inkscape:connector-curvature="0"
         id="path1190-2"
         d="M 0,0 5,-5 -12.5,0 5,5 Z"
         style="fill:#000000;fill-opacity:1;fill-rule:evenodd;stroke:#000000;stroke-width:1.00000003pt;stroke-opacity:1"
         transform="matrix(-0.4,0,0,-0.4,-4,0)" /></marker></defs><sodipodi:namedview
     pagecolor="#ffffff"
     bordercolor="#666666"
     borderopacity="1"
     objecttolerance="10"
     gridtolerance="10"
     guidetolerance="10"
     inkscape:pageopacity="0"
     inkscape:pageshadow="2"
     inkscape:window-width="1920"
     inkscape:window-height="1030"
     id="namedview4"
     showgrid="false"
     inkscape:zoom="0.7375"
     inkscape:cx="564.75097"
     inkscape:cy="405.2224"
     inkscape:window-x="0"
     inkscape:window-y="29"
     inkscape:window-maximized="1"
     inkscape:current-layer="g12" /><g
     id="g10"
     inkscape:groupmode="layer"
     inkscape:label="scheme"
     transform="matrix(1.3333333,0,0,-1.3333333,0,640)"><g
       id="g12"><path
         d="M 101.496,186.215 H 322.898 L 256.605,130.5 322.898,74.785 H 101.496 L 35.203,130.5 Z"
         style="fill:#b3b3b3;fill-opacity:0.18222201;fill-rule:nonzero;stroke:none"
         id="path14"
         inkscape:connector-curvature="0" /><g
         id="g16"
         transform="matrix(1,0,0,-1,0,480)"><path
           d="m 101.496,293.785 h 221.402 l -66.293,55.715 66.293,55.715 H 101.496 L 35.203,349.5 Z"
           style="fill:none;stroke:#000000;stroke-width:0.375;stroke-linecap:round;stroke-linejoin:round;stroke-miterlimit:4;stroke-dasharray:none;stroke-opacity:1"
           id="path18"
           inkscape:connector-curvature="0" /></g><g
         id="g20"
         transform="matrix(1,0,0,-1,0,480)"><path
           d="m 35.762,349.492 h 412.14"
           style="fill:none;stroke:#000000;stroke-width:0.375;stroke-linecap:round;stroke-linejoin:miter;stroke-miterlimit:4;stroke-dasharray:none;stroke-opacity:1"
           id="path22"
           inkscape:connector-curvature="0" /></g><path
         d="m 32.613,130.75 c 0,0.926 0.223,1.633 0.672,2.125 0.457,0.5 1.11,0.75 1.953,0.75 0.844,0 1.504,-0.25 1.985,-0.75 0.476,-0.492 0.718,-1.199 0.718,-2.125 0,-0.906 -0.242,-1.625 -0.718,-2.156 -0.481,-0.52 -1.141,-0.782 -1.985,-0.782 -0.836,0 -1.48,0.258 -1.937,0.766 -0.461,0.52 -0.688,1.242 -0.688,2.172 z"
         style="fill:#000000;fill-opacity:1;fill-rule:nonzero;stroke:none"
         id="path24"
         inkscape:connector-curvature="0" /><path
         d="m 100.957,138.52 h 1.109 v -15.016 h -1.109 z"
         style="fill:#000000;fill-opacity:1;fill-rule:nonzero;stroke:none"
         id="path26"
         inkscape:connector-curvature="0" /><path
         d="M 202.258,157.426 H 435.023 L 368.734,101.711 435.023,45.996 H 202.258 l -66.293,55.715 z"
         style="fill:#b3b3b3;fill-opacity:0.18222201;fill-rule:nonzero;stroke:none"
         id="path28"
         inkscape:connector-curvature="0" /><g
         id="g30"
         transform="matrix(1,0,0,-1,0,480)"><path
           d="m 202.258,322.574 h 232.765 l -66.289,55.715 66.289,55.715 H 202.258 l -66.293,-55.715 z"
           style="fill:none;stroke:#000000;stroke-width:0.375;stroke-linecap:round;stroke-linejoin:round;stroke-miterlimit:4;stroke-dasharray:none;stroke-opacity:1"
           id="path32"
           inkscape:connector-curvature="0" /></g><g
         id="g34"
         transform="matrix(1,0,0,-1,0,480)"><path
           d="M 136.523,378.281 H 466.086"
           style="fill:none;stroke:#000000;stroke-width:0.375;stroke-linecap:round;stroke-linejoin:miter;stroke-miterlimit:4;stroke-dasharray:none;stroke-opacity:1"
           id="path36"
           inkscape:connector-curvature="0" /></g><g
         id="g38"
         transform="matrix(1,0,0,-1,0,480)"><path
           d="M 135.801,227.176 V 376.637"
           style="fill:none;stroke:#4d4d4d;stroke-width:0.60000002;stroke-linecap:butt;stroke-linejoin:miter;stroke-miterlimit:4;stroke-dasharray:3.6, 1.2;stroke-dashoffset:0;stroke-opacity:1"
           id="path40"
           inkscape:connector-curvature="0" /></g><path
         d="m 16.828,125.605 v 0.782 h 1.391 v 9.375 h -1.391 v 0.781 h 8.797 v -2.438 h -0.891 v 1.532 h -5.031 v -3.657 h 3.578 v 1.36 h 0.907 v -3.625 h -0.907 v 1.375 h -3.578 v -4.578 h 5.141 v 1.531 h 0.906 v -2.438 z"
         style="fill:#000000;fill-opacity:1;fill-rule:nonzero;stroke:none"
         id="path42"
         inkscape:connector-curvature="0" /><path
         d="m 28.379,122.605 v 0.516 h 1.266 v 6.063 l -1.469,-0.954 v 0.641 l 1.781,1.156 h 0.672 v -6.906 h 1.266 v -0.516 z"
         style="fill:#000000;fill-opacity:1;fill-rule:nonzero;stroke:none"
         id="path44"
         inkscape:connector-curvature="0" /><path
         d="m 116.344,95.684 v 0.781 h 1.39 v 9.375 h -1.39 v 0.781 h 8.797 v -2.437 h -0.891 v 1.531 h -5.031 v -3.656 h 3.578 v 1.359 h 0.906 v -3.625 h -0.906 v 1.375 h -3.578 V 96.59 h 5.14 v 1.531 h 0.907 v -2.437 z"
         style="fill:#000000;fill-opacity:1;fill-rule:nonzero;stroke:none"
         id="path46"
         inkscape:connector-curvature="0" /><path
         d="m 127.754,98.23 h -0.547 v 1.297 c 0.344,0.188 0.691,0.328 1.047,0.422 0.351,0.102 0.703,0.156 1.047,0.156 0.75,0 1.344,-0.187 1.781,-0.562 0.445,-0.367 0.672,-0.859 0.672,-1.484 0,-0.719 -0.5,-1.575 -1.5,-2.563 -0.074,-0.074 -0.133,-0.133 -0.172,-0.172 l -1.844,-1.844 h 3.047 v 0.907 h 0.563 v -1.703 h -4.703 v 0.531 l 2.218,2.203 c 0.489,0.488 0.836,0.937 1.047,1.344 0.207,0.414 0.313,0.847 0.313,1.297 0,0.488 -0.133,0.867 -0.391,1.14 -0.25,0.281 -0.602,0.422 -1.047,0.422 -0.469,0 -0.836,-0.117 -1.094,-0.344 -0.25,-0.23 -0.398,-0.578 -0.437,-1.047 z"
         style="fill:#000000;fill-opacity:1;fill-rule:nonzero;stroke:none"
         id="path48"
         inkscape:connector-curvature="0" /><g
         id="g50"
         transform="matrix(1,0,0,-1,0,480)"><path
           d="m 170.891,263.918 v 85.93"
           style="fill:none;stroke:#4d4d4d;stroke-width:0.60000002;stroke-linecap:butt;stroke-linejoin:miter;stroke-miterlimit:4;stroke-dasharray:3.6, 1.2;stroke-dashoffset:0;stroke-opacity:1"
           id="path52"
           inkscape:connector-curvature="0" /></g><g
         id="g54"
         transform="matrix(1,0,0,-1,0,480)"><path
           d="M 290.594,227.176 V 377.504"
           style="fill:none;stroke:#4d4d4d;stroke-width:0.60000002;stroke-linecap:butt;stroke-linejoin:miter;stroke-miterlimit:4;stroke-dasharray:3.6, 1.2;stroke-dashoffset:0;stroke-opacity:1"
           id="path56"
           inkscape:connector-curvature="0" /></g><g
         id="g58"
         transform="matrix(1,0,0,-1,0,480)"><path
           d="m 170.617,349.492 h 86.367"
           style="fill:none;stroke:#ffffff;stroke-width:1.5;stroke-linecap:butt;stroke-linejoin:miter;stroke-miterlimit:4;stroke-dasharray:none;stroke-opacity:1"
           id="path60"
           inkscape:connector-curvature="0" /></g><g
         id="g62"
         transform="matrix(1,0,0,-1,0,480)"><path
           d="m 445.445,350.93 v 26.449"
           style="fill:none;stroke:#000000;stroke-width:0.75;stroke-linecap:butt;stroke-linejoin:miter;stroke-miterlimit:4;stroke-dasharray:none;stroke-opacity:1"
           id="path64"
           inkscape:connector-curvature="0" /></g><g
         id="g66"
         transform="matrix(0,-1,-1,0,0,480)"><path
           d="m 353.93,-445.445 1.5,-1.5 -5.25,1.5 5.25,1.5 z"
           style="fill:#000000;fill-opacity:1;fill-rule:evenodd;stroke:#000000;stroke-width:0.40000001;stroke-linecap:butt;stroke-linejoin:miter;stroke-miterlimit:4;stroke-dasharray:none;stroke-opacity:1"
           id="path68"
           inkscape:connector-curvature="0" /></g><g
         id="g70"
         transform="matrix(0,1,1,0,0,480)"><path
           d="m -374.379,445.445 1.5,-1.5 -5.25,1.5 5.25,1.5 z"
           style="fill:#000000;fill-opacity:1;fill-rule:evenodd;stroke:#000000;stroke-width:0.40000001;stroke-linecap:butt;stroke-linejoin:miter;stroke-miterlimit:4;stroke-dasharray:none;stroke-opacity:1"
           id="path72"
           inkscape:connector-curvature="0" /></g><path
         d="m 346.789,215.047 h 1.281 v -0.781 h -2.625 v 1.218 c -0.273,-0.492 -0.609,-0.855 -1.015,-1.093 -0.407,-0.227 -0.914,-0.344 -1.516,-0.344 -0.949,0 -1.73,0.379 -2.344,1.141 -0.605,0.757 -0.906,1.75 -0.906,2.968 0,1.227 0.301,2.219 0.906,2.969 0.602,0.758 1.383,1.141 2.344,1.141 0.602,0 1.109,-0.121 1.516,-0.36 0.406,-0.23 0.742,-0.59 1.015,-1.078 v 4.063 h -1.281 v 0.765 h 2.625 z m -1.344,2.734 v 0.766 c 0,0.926 -0.183,1.633 -0.547,2.125 -0.355,0.5 -0.875,0.75 -1.562,0.75 -0.688,0 -1.211,-0.277 -1.563,-0.828 -0.355,-0.543 -0.531,-1.356 -0.531,-2.438 0,-1.074 0.176,-1.886 0.531,-2.437 0.352,-0.555 0.875,-0.828 1.563,-0.828 0.687,0 1.207,0.242 1.562,0.734 0.364,0.5 0.547,1.219 0.547,2.156 z"
         style="fill:#4d4d4d;fill-opacity:1;fill-rule:nonzero;stroke:none"
         id="path74"
         inkscape:connector-curvature="0" /><path
         d="m 349.227,224.469 c 0,0.226 0.082,0.422 0.25,0.578 0.164,0.164 0.363,0.25 0.593,0.25 0.219,0 0.41,-0.086 0.578,-0.25 0.164,-0.156 0.25,-0.352 0.25,-0.578 0,-0.231 -0.086,-0.43 -0.25,-0.594 -0.156,-0.156 -0.351,-0.234 -0.578,-0.234 -0.23,0 -0.429,0.078 -0.593,0.234 -0.168,0.164 -0.25,0.363 -0.25,0.594 z m 1.718,-9.422 h 1.282 v -0.781 h -3.907 v 0.781 h 1.282 v 6.219 h -1.282 v 0.781 h 2.625 z"
         style="fill:#4d4d4d;fill-opacity:1;fill-rule:nonzero;stroke:none"
         id="path76"
         inkscape:connector-curvature="0" /><path
         d="m 352.672,214.703 v 1.813 h 0.781 c 0.008,-0.586 0.188,-1.024 0.531,-1.313 0.352,-0.281 0.864,-0.422 1.532,-0.422 0.601,0 1.062,0.11 1.375,0.328 0.32,0.227 0.484,0.563 0.484,1 0,0.344 -0.117,0.618 -0.344,0.829 -0.23,0.207 -0.719,0.429 -1.469,0.671 l -0.968,0.329 c -0.668,0.218 -1.153,0.488 -1.453,0.812 -0.305,0.32 -0.453,0.734 -0.453,1.234 0,0.707 0.257,1.266 0.781,1.672 0.519,0.406 1.242,0.61 2.172,0.61 0.406,0 0.832,-0.059 1.281,-0.172 0.457,-0.106 0.93,-0.258 1.422,-0.453 v -1.703 h -0.782 c -0.023,0.5 -0.199,0.89 -0.531,1.171 -0.336,0.282 -0.781,0.422 -1.343,0.422 -0.575,0 -1.008,-0.101 -1.297,-0.297 -0.293,-0.199 -0.438,-0.496 -0.438,-0.89 0,-0.336 0.109,-0.602 0.328,-0.797 0.227,-0.199 0.672,-0.399 1.328,-0.594 l 1.063,-0.344 c 0.738,-0.23 1.269,-0.515 1.594,-0.859 0.32,-0.344 0.484,-0.789 0.484,-1.328 0,-0.731 -0.281,-1.309 -0.844,-1.734 -0.562,-0.426 -1.34,-0.641 -2.328,-0.641 -0.5,0 -0.992,0.058 -1.469,0.172 -0.48,0.101 -0.961,0.265 -1.437,0.484 z"
         style="fill:#4d4d4d;fill-opacity:1;fill-rule:nonzero;stroke:none"
         id="path78"
         inkscape:connector-curvature="0" /><path
         d="m 360.41,221.266 h -1.187 v 0.781 h 1.187 v 2.422 h 1.344 v -2.422 h 2.547 v -0.781 h -2.547 v -4.938 c 0,-0.668 0.062,-1.094 0.187,-1.281 0.133,-0.18 0.375,-0.266 0.719,-0.266 0.344,0 0.594,0.102 0.75,0.313 0.164,0.207 0.254,0.539 0.266,1 h 1.015 c -0.031,-0.711 -0.226,-1.231 -0.578,-1.563 -0.343,-0.32 -0.871,-0.484 -1.578,-0.484 -0.781,0 -1.336,0.172 -1.656,0.515 -0.313,0.352 -0.469,0.942 -0.469,1.766 z"
         style="fill:#4d4d4d;fill-opacity:1;fill-rule:nonzero;stroke:none"
         id="path80"
         inkscape:connector-curvature="0" /><path
         d="m 370.039,216.719 v 1.64 h -1.734 c -0.668,0 -1.168,-0.148 -1.5,-0.437 -0.325,-0.281 -0.485,-0.719 -0.485,-1.313 0,-0.543 0.164,-0.976 0.5,-1.297 0.332,-0.312 0.782,-0.468 1.344,-0.468 0.563,0 1.016,0.172 1.359,0.515 0.344,0.344 0.516,0.797 0.516,1.36 z m 1.344,2.406 v -4.078 h 1.203 v -0.781 h -2.547 v 0.843 c -0.305,-0.367 -0.652,-0.636 -1.047,-0.812 -0.387,-0.164 -0.84,-0.25 -1.359,-0.25 -0.867,0 -1.555,0.226 -2.063,0.687 -0.5,0.469 -0.75,1.094 -0.75,1.875 0,0.801 0.285,1.422 0.86,1.86 0.582,0.445 1.406,0.672 2.468,0.672 h 1.891 v 0.531 c 0,0.594 -0.184,1.051 -0.547,1.375 -0.355,0.32 -0.855,0.484 -1.5,0.484 -0.543,0 -0.976,-0.121 -1.297,-0.359 -0.312,-0.242 -0.507,-0.602 -0.578,-1.078 h -0.703 v 1.562 c 0.469,0.207 0.922,0.36 1.359,0.453 0.446,0.102 0.879,0.157 1.297,0.157 1.082,0 1.907,-0.274 2.469,-0.813 0.563,-0.531 0.844,-1.308 0.844,-2.328 z"
         style="fill:#4d4d4d;fill-opacity:1;fill-rule:nonzero;stroke:none"
         id="path82"
         inkscape:connector-curvature="0" /><path
         d="m 372.863,214.266 v 0.781 h 1.219 v 6.219 h -1.281 v 0.781 h 2.625 v -1.375 c 0.25,0.519 0.57,0.914 0.969,1.187 0.406,0.27 0.867,0.407 1.39,0.407 0.863,0 1.5,-0.25 1.906,-0.75 0.407,-0.493 0.61,-1.258 0.61,-2.297 v -4.172 h 1.203 v -0.781 h -3.734 v 0.781 h 1.171 v 3.75 c 0,0.945 -0.121,1.598 -0.359,1.953 -0.23,0.352 -0.641,0.531 -1.234,0.531 -0.625,0 -1.106,-0.23 -1.438,-0.687 -0.324,-0.461 -0.484,-1.121 -0.484,-1.985 v -3.562 h 1.172 v -0.781 z"
         style="fill:#4d4d4d;fill-opacity:1;fill-rule:nonzero;stroke:none"
         id="path84"
         inkscape:connector-curvature="0" /><path
         d="m 388.891,216.609 c -0.2,-0.836 -0.571,-1.468 -1.11,-1.906 -0.543,-0.437 -1.242,-0.656 -2.093,-0.656 -1.137,0 -2.047,0.375 -2.735,1.125 -0.687,0.75 -1.031,1.742 -1.031,2.984 0,1.25 0.344,2.242 1.031,2.985 0.688,0.75 1.598,1.125 2.735,1.125 0.488,0 0.976,-0.059 1.468,-0.172 0.489,-0.117 0.977,-0.293 1.469,-0.532 v -1.984 h -0.781 c -0.106,0.676 -0.328,1.172 -0.672,1.484 -0.344,0.313 -0.836,0.469 -1.469,0.469 -0.73,0 -1.281,-0.281 -1.656,-0.843 -0.367,-0.563 -0.547,-1.407 -0.547,-2.532 0,-1.117 0.18,-1.961 0.547,-2.531 0.363,-0.563 0.914,-0.844 1.656,-0.844 0.57,0 1.031,0.149 1.375,0.453 0.352,0.301 0.594,0.758 0.719,1.375 z"
         style="fill:#4d4d4d;fill-opacity:1;fill-rule:nonzero;stroke:none"
         id="path86"
         inkscape:connector-curvature="0" /><path
         d="m 396.957,218.016 h -5.797 v -0.063 c 0,-1.055 0.195,-1.844 0.594,-2.375 0.394,-0.531 0.976,-0.797 1.75,-0.797 0.582,0 1.062,0.149 1.437,0.453 0.383,0.313 0.657,0.774 0.813,1.391 h 1.078 c -0.219,-0.855 -0.621,-1.5 -1.203,-1.937 -0.574,-0.426 -1.328,-0.641 -2.266,-0.641 -1.148,0 -2.062,0.375 -2.75,1.125 -0.687,0.75 -1.031,1.742 -1.031,2.984 0,1.239 0.336,2.235 1.016,2.985 0.675,0.75 1.566,1.125 2.672,1.125 1.175,0 2.078,-0.368 2.703,-1.094 0.632,-0.719 0.961,-1.774 0.984,-3.156 z m -1.578,0.781 c -0.031,0.906 -0.227,1.586 -0.578,2.047 -0.356,0.457 -0.867,0.687 -1.531,0.687 -0.618,0 -1.106,-0.234 -1.469,-0.703 -0.356,-0.461 -0.571,-1.137 -0.641,-2.031 z"
         style="fill:#4d4d4d;fill-opacity:1;fill-rule:nonzero;stroke:none"
         id="path88"
         inkscape:connector-curvature="0" /><path
         d="m 402.719,215.047 v 9.844 h -1.297 v 0.765 h 2.64 v -4.828 c 0.258,0.488 0.594,0.848 1,1.078 0.407,0.239 0.911,0.36 1.516,0.36 0.957,0 1.738,-0.383 2.344,-1.141 0.601,-0.75 0.906,-1.742 0.906,-2.969 0,-1.218 -0.305,-2.211 -0.906,-2.968 -0.606,-0.762 -1.387,-1.141 -2.344,-1.141 -0.605,0 -1.109,0.117 -1.516,0.344 -0.406,0.238 -0.742,0.601 -1,1.093 v -1.218 h -2.64 v 0.781 z m 1.343,2.734 c 0,-0.937 0.176,-1.656 0.532,-2.156 0.363,-0.492 0.883,-0.734 1.562,-0.734 0.696,0 1.219,0.273 1.563,0.828 0.351,0.551 0.531,1.363 0.531,2.437 0,1.082 -0.18,1.895 -0.531,2.438 -0.344,0.551 -0.867,0.828 -1.563,0.828 -0.679,0 -1.199,-0.25 -1.562,-0.75 -0.356,-0.492 -0.532,-1.199 -0.532,-2.125 z"
         style="fill:#4d4d4d;fill-opacity:1;fill-rule:nonzero;stroke:none"
         id="path90"
         inkscape:connector-curvature="0" /><path
         d="m 417.969,218.016 h -5.797 v -0.063 c 0,-1.055 0.195,-1.844 0.594,-2.375 0.394,-0.531 0.976,-0.797 1.75,-0.797 0.582,0 1.062,0.149 1.437,0.453 0.383,0.313 0.656,0.774 0.813,1.391 h 1.078 c -0.219,-0.855 -0.621,-1.5 -1.203,-1.937 -0.575,-0.426 -1.329,-0.641 -2.266,-0.641 -1.148,0 -2.063,0.375 -2.75,1.125 -0.687,0.75 -1.031,1.742 -1.031,2.984 0,1.239 0.336,2.235 1.015,2.985 0.676,0.75 1.567,1.125 2.672,1.125 1.176,0 2.078,-0.368 2.703,-1.094 0.633,-0.719 0.961,-1.774 0.985,-3.156 z m -1.578,0.781 c -0.032,0.906 -0.227,1.586 -0.579,2.047 -0.355,0.457 -0.867,0.687 -1.531,0.687 -0.617,0 -1.105,-0.234 -1.469,-0.703 -0.355,-0.461 -0.57,-1.137 -0.64,-2.031 z"
         style="fill:#4d4d4d;fill-opacity:1;fill-rule:nonzero;stroke:none"
         id="path92"
         inkscape:connector-curvature="0" /><path
         d="m 419.594,221.266 h -1.188 v 0.781 h 1.188 v 2.422 h 1.344 v -2.422 h 2.546 v -0.781 h -2.546 v -4.938 c 0,-0.668 0.062,-1.094 0.187,-1.281 0.133,-0.18 0.375,-0.266 0.719,-0.266 0.344,0 0.594,0.102 0.75,0.313 0.164,0.207 0.254,0.539 0.265,1 h 1.016 c -0.031,-0.711 -0.227,-1.231 -0.578,-1.563 -0.344,-0.32 -0.871,-0.484 -1.578,-0.484 -0.781,0 -1.336,0.172 -1.657,0.515 -0.312,0.352 -0.468,0.942 -0.468,1.766 z"
         style="fill:#4d4d4d;fill-opacity:1;fill-rule:nonzero;stroke:none"
         id="path94"
         inkscape:connector-curvature="0" /><path
         d="m 430.457,222.047 1.984,-6.078 1.766,5.297 h -1.125 v 0.781 h 2.813 v -0.781 h -0.86 l -2.312,-7 h -1.125 l -1.922,5.828 -1.922,-5.828 h -1.078 l -2.313,7 h -0.875 v 0.781 h 3.532 v -0.781 h -1.266 l 1.75,-5.297 2,6.078 z"
         style="fill:#4d4d4d;fill-opacity:1;fill-rule:nonzero;stroke:none"
         id="path96"
         inkscape:connector-curvature="0" /><path
         d="m 443.461,218.016 h -5.797 v -0.063 c 0,-1.055 0.195,-1.844 0.594,-2.375 0.394,-0.531 0.976,-0.797 1.75,-0.797 0.582,0 1.062,0.149 1.437,0.453 0.383,0.313 0.657,0.774 0.813,1.391 h 1.078 c -0.219,-0.855 -0.621,-1.5 -1.203,-1.937 -0.574,-0.426 -1.328,-0.641 -2.266,-0.641 -1.148,0 -2.062,0.375 -2.75,1.125 -0.687,0.75 -1.031,1.742 -1.031,2.984 0,1.239 0.336,2.235 1.016,2.985 0.675,0.75 1.566,1.125 2.671,1.125 1.176,0 2.079,-0.368 2.704,-1.094 0.632,-0.719 0.961,-1.774 0.984,-3.156 z m -1.578,0.781 c -0.031,0.906 -0.227,1.586 -0.578,2.047 -0.356,0.457 -0.867,0.687 -1.532,0.687 -0.617,0 -1.105,-0.234 -1.468,-0.703 -0.356,-0.461 -0.571,-1.137 -0.641,-2.031 z"
         style="fill:#4d4d4d;fill-opacity:1;fill-rule:nonzero;stroke:none"
         id="path98"
         inkscape:connector-curvature="0" /><path
         d="m 451.59,218.016 h -5.797 v -0.063 c 0,-1.055 0.195,-1.844 0.594,-2.375 0.394,-0.531 0.976,-0.797 1.75,-0.797 0.582,0 1.062,0.149 1.437,0.453 0.383,0.313 0.656,0.774 0.813,1.391 h 1.078 c -0.219,-0.855 -0.621,-1.5 -1.203,-1.937 -0.574,-0.426 -1.328,-0.641 -2.266,-0.641 -1.148,0 -2.062,0.375 -2.75,1.125 -0.687,0.75 -1.031,1.742 -1.031,2.984 0,1.239 0.336,2.235 1.015,2.985 0.676,0.75 1.567,1.125 2.672,1.125 1.176,0 2.078,-0.368 2.703,-1.094 0.633,-0.719 0.961,-1.774 0.985,-3.156 z m -1.578,0.781 c -0.032,0.906 -0.227,1.586 -0.578,2.047 -0.356,0.457 -0.868,0.687 -1.532,0.687 -0.617,0 -1.105,-0.234 -1.468,-0.703 -0.356,-0.461 -0.571,-1.137 -0.641,-2.031 z"
         style="fill:#4d4d4d;fill-opacity:1;fill-rule:nonzero;stroke:none"
         id="path100"
         inkscape:connector-curvature="0" /><path
         d="m 452.199,214.266 v 0.781 h 1.219 v 6.219 h -1.281 v 0.781 h 2.625 v -1.375 c 0.25,0.519 0.57,0.914 0.968,1.187 0.407,0.27 0.868,0.407 1.391,0.407 0.863,0 1.5,-0.25 1.906,-0.75 0.407,-0.493 0.61,-1.258 0.61,-2.297 v -4.172 h 1.203 v -0.781 h -3.735 v 0.781 h 1.172 v 3.75 c 0,0.945 -0.121,1.598 -0.359,1.953 -0.23,0.352 -0.641,0.531 -1.234,0.531 -0.625,0 -1.106,-0.23 -1.438,-0.687 -0.324,-0.461 -0.484,-1.121 -0.484,-1.985 v -3.562 h 1.172 v -0.781 z"
         style="fill:#4d4d4d;fill-opacity:1;fill-rule:nonzero;stroke:none"
         id="path102"
         inkscape:connector-curvature="0" /><path
         d="m 426.223,201.719 v 1.64 h -1.735 c -0.668,0 -1.168,-0.148 -1.5,-0.437 -0.324,-0.281 -0.484,-0.719 -0.484,-1.313 0,-0.543 0.164,-0.976 0.5,-1.297 0.332,-0.312 0.781,-0.468 1.344,-0.468 0.562,0 1.015,0.172 1.359,0.515 0.344,0.344 0.516,0.797 0.516,1.36 z m 1.343,2.406 v -4.078 h 1.204 v -0.781 h -2.547 v 0.843 c -0.305,-0.367 -0.653,-0.636 -1.047,-0.812 -0.387,-0.164 -0.84,-0.25 -1.36,-0.25 -0.867,0 -1.554,0.226 -2.062,0.687 -0.5,0.469 -0.75,1.094 -0.75,1.875 0,0.801 0.285,1.422 0.859,1.86 0.582,0.445 1.407,0.672 2.469,0.672 h 1.891 v 0.531 c 0,0.594 -0.184,1.051 -0.547,1.375 -0.356,0.32 -0.856,0.484 -1.5,0.484 -0.543,0 -0.977,-0.121 -1.297,-0.359 -0.313,-0.242 -0.508,-0.602 -0.578,-1.078 h -0.703 v 1.562 c 0.468,0.207 0.922,0.36 1.359,0.453 0.445,0.102 0.879,0.157 1.297,0.157 1.082,0 1.906,-0.274 2.469,-0.813 0.562,-0.531 0.843,-1.308 0.843,-2.328 z"
         style="fill:#4d4d4d;fill-opacity:1;fill-rule:nonzero;stroke:none"
         id="path106"
         inkscape:connector-curvature="0" /><path
         d="m 429.051,199.266 v 0.781 h 1.219 v 6.219 h -1.282 v 0.781 h 2.625 v -1.375 c 0.25,0.519 0.571,0.914 0.969,1.187 0.406,0.27 0.867,0.407 1.391,0.407 0.863,0 1.5,-0.25 1.906,-0.75 0.406,-0.493 0.609,-1.258 0.609,-2.297 v -4.172 h 1.203 v -0.781 h -3.734 v 0.781 h 1.172 v 3.75 c 0,0.945 -0.121,1.598 -0.359,1.953 -0.231,0.352 -0.641,0.531 -1.235,0.531 -0.625,0 -1.105,-0.23 -1.437,-0.687 -0.325,-0.461 -0.485,-1.121 -0.485,-1.985 v -3.562 h 1.172 v -0.781 z"
         style="fill:#4d4d4d;fill-opacity:1;fill-rule:nonzero;stroke:none"
         id="path108"
         inkscape:connector-curvature="0" /><path
         d="m 445.234,200.047 h 1.282 v -0.781 h -2.625 v 1.218 c -0.274,-0.492 -0.61,-0.855 -1.016,-1.093 -0.406,-0.227 -0.914,-0.344 -1.516,-0.344 -0.949,0 -1.73,0.379 -2.343,1.141 -0.606,0.757 -0.907,1.75 -0.907,2.968 0,1.227 0.301,2.219 0.907,2.969 0.601,0.758 1.382,1.141 2.343,1.141 0.602,0 1.11,-0.121 1.516,-0.36 0.406,-0.23 0.742,-0.59 1.016,-1.078 v 4.063 h -1.282 v 0.765 h 2.625 z m -1.343,2.734 v 0.766 c 0,0.926 -0.184,1.633 -0.547,2.125 -0.356,0.5 -0.875,0.75 -1.563,0.75 -0.687,0 -1.211,-0.277 -1.562,-0.828 -0.356,-0.543 -0.531,-1.356 -0.531,-2.438 0,-1.074 0.175,-1.886 0.531,-2.437 0.351,-0.555 0.875,-0.828 1.562,-0.828 0.688,0 1.207,0.242 1.563,0.734 0.363,0.5 0.547,1.219 0.547,2.156 z"
         style="fill:#4d4d4d;fill-opacity:1;fill-rule:nonzero;stroke:none"
         id="path110"
         inkscape:connector-curvature="0" /><g
         id="g114"
         transform="matrix(1,0,0,-1,0,480)"><path
           d="M 35.594,454.875 35.406,254.676"
           style="fill:none;stroke:#000000;stroke-width:0.75;stroke-linecap:round;stroke-linejoin:miter;stroke-miterlimit:4;stroke-dasharray:none;stroke-opacity:1"
           id="path116"
           inkscape:connector-curvature="0" /></g><g
         id="g118"
         transform="matrix(9.46264e-4,-1,-1,-9.46264e-4,0,480)"><path
           d="m 257.709,-35.162 1.501,-1.503 -5.251,1.503 5.253,1.497 z"
           style="fill:#000000;fill-opacity:1;fill-rule:evenodd;stroke:#000000;stroke-width:0.40000001;stroke-linecap:butt;stroke-linejoin:miter;stroke-miterlimit:4;stroke-dasharray:none;stroke-opacity:1"
           id="path120"
           inkscape:connector-curvature="0" /></g><g
         id="g122"
         transform="matrix(1,0,0,-1,0,480)"><path
           d="M 35.426,455.027 H 446.293"
           style="fill:none;stroke:#000000;stroke-width:0.375;stroke-linecap:round;stroke-linejoin:miter;stroke-miterlimit:4;stroke-dasharray:none;stroke-opacity:1"
           id="path124"
           inkscape:connector-curvature="0" /></g><g
         id="g126"
         transform="matrix(-1,0,0,1,0,480)"><path
           d="m -442.543,-455.027 1.5,-1.5 -5.25,1.5 5.25,1.5 z"
           style="fill:#000000;fill-opacity:1;fill-rule:evenodd;stroke:#000000;stroke-width:0.40000001;stroke-linecap:butt;stroke-linejoin:miter;stroke-miterlimit:4;stroke-dasharray:none;stroke-opacity:1"
           id="path128"
           inkscape:connector-curvature="0" /></g><path
         d="m 411.742,15.191 h -1.187 v 0.782 h 1.187 v 2.422 h 1.344 v -2.422 h 2.547 v -0.782 h -2.547 v -4.937 c 0,-0.668 0.062,-1.094 0.187,-1.281 0.133,-0.18 0.375,-0.266 0.719,-0.266 0.344,0 0.594,0.102 0.75,0.313 0.164,0.207 0.254,0.539 0.266,1 h 1.015 c -0.031,-0.711 -0.226,-1.231 -0.578,-1.563 -0.343,-0.32 -0.871,-0.484 -1.578,-0.484 -0.781,0 -1.336,0.172 -1.656,0.515 -0.313,0.352 -0.469,0.942 -0.469,1.766 z"
         style="fill:#4d4d4d;fill-opacity:1;fill-rule:nonzero;stroke:none"
         id="path130"
         inkscape:connector-curvature="0" /><path
         d="m 416.855,18.395 c 0,0.226 0.083,0.421 0.25,0.578 0.165,0.164 0.364,0.25 0.594,0.25 0.219,0 0.41,-0.086 0.578,-0.25 0.164,-0.157 0.25,-0.352 0.25,-0.578 0,-0.231 -0.086,-0.43 -0.25,-0.594 -0.156,-0.156 -0.351,-0.235 -0.578,-0.235 -0.23,0 -0.429,0.079 -0.594,0.235 -0.167,0.164 -0.25,0.363 -0.25,0.594 z m 1.719,-9.422 h 1.281 V 8.191 h -3.906 v 0.782 h 1.281 v 6.218 h -1.281 v 0.782 h 2.625 z"
         style="fill:#4d4d4d;fill-opacity:1;fill-rule:nonzero;stroke:none"
         id="path132"
         inkscape:connector-curvature="0" /><path
         d="m 427.223,14.457 c 0.257,0.57 0.593,1.004 1,1.297 0.406,0.289 0.875,0.437 1.406,0.437 0.812,0 1.414,-0.257 1.812,-0.765 0.407,-0.5 0.61,-1.262 0.61,-2.281 V 8.973 h 1.219 V 8.191 h -3.735 v 0.782 h 1.172 v 4.015 c 0,0.789 -0.121,1.352 -0.359,1.688 -0.231,0.344 -0.618,0.515 -1.157,0.515 -0.605,0 -1.062,-0.23 -1.375,-0.687 -0.312,-0.449 -0.468,-1.106 -0.468,-1.969 V 8.973 h 1.172 V 8.191 h -3.688 v 0.782 h 1.172 v 4.062 c 0,0.781 -0.121,1.332 -0.359,1.656 -0.231,0.332 -0.618,0.5 -1.157,0.5 -0.605,0 -1.07,-0.23 -1.39,-0.687 -0.313,-0.449 -0.469,-1.106 -0.469,-1.969 V 8.973 h 1.172 V 8.191 h -3.735 v 0.782 h 1.219 v 6.234 h -1.281 v 0.766 h 2.625 v -1.375 c 0.25,0.507 0.566,0.898 0.953,1.172 0.383,0.281 0.82,0.421 1.313,0.421 0.601,0 1.109,-0.152 1.515,-0.453 0.406,-0.304 0.676,-0.73 0.813,-1.281 z"
         style="fill:#4d4d4d;fill-opacity:1;fill-rule:nonzero;stroke:none"
         id="path134"
         inkscape:connector-curvature="0" /><path
         d="m 441.07,11.941 h -5.797 v -0.062 c 0,-1.055 0.196,-1.844 0.594,-2.375 0.395,-0.531 0.977,-0.797 1.75,-0.797 0.582,0 1.063,0.148 1.438,0.453 0.383,0.313 0.656,0.774 0.812,1.391 h 1.078 c -0.218,-0.856 -0.621,-1.5 -1.203,-1.938 -0.574,-0.425 -1.328,-0.64 -2.265,-0.64 -1.149,0 -2.063,0.375 -2.75,1.125 -0.688,0.75 -1.032,1.742 -1.032,2.984 0,1.238 0.336,2.234 1.016,2.984 0.676,0.75 1.566,1.125 2.672,1.125 1.176,0 2.078,-0.367 2.703,-1.093 0.633,-0.719 0.961,-1.774 0.984,-3.157 z m -1.578,0.782 c -0.031,0.906 -0.226,1.586 -0.578,2.047 -0.355,0.457 -0.867,0.687 -1.531,0.687 -0.617,0 -1.106,-0.234 -1.469,-0.703 -0.355,-0.461 -0.57,-1.137 -0.641,-2.031 z"
         style="fill:#4d4d4d;fill-opacity:1;fill-rule:nonzero;stroke:none"
         id="path136"
         inkscape:connector-curvature="0" /><path
         d="m 24.285,186.402 h -1.812 v 0.782 c 0.586,0.007 1.023,0.187 1.312,0.531 0.281,0.351 0.422,0.863 0.422,1.531 0,0.602 -0.109,1.063 -0.328,1.375 -0.227,0.32 -0.563,0.484 -1,0.484 -0.344,0 -0.617,-0.117 -0.828,-0.343 -0.207,-0.231 -0.43,-0.719 -0.672,-1.469 l -0.328,-0.969 c -0.219,-0.668 -0.489,-1.152 -0.813,-1.453 -0.32,-0.305 -0.734,-0.453 -1.234,-0.453 -0.707,0 -1.266,0.258 -1.672,0.781 -0.406,0.52 -0.609,1.242 -0.609,2.172 0,0.406 0.058,0.832 0.172,1.281 0.105,0.457 0.257,0.93 0.453,1.422 h 1.703 v -0.781 c -0.5,-0.023 -0.891,-0.199 -1.172,-0.531 -0.281,-0.336 -0.422,-0.782 -0.422,-1.344 0,-0.574 0.102,-1.008 0.297,-1.297 0.199,-0.293 0.496,-0.437 0.891,-0.437 0.335,0 0.601,0.109 0.796,0.328 0.2,0.226 0.399,0.672 0.594,1.328 l 0.344,1.062 c 0.23,0.739 0.516,1.27 0.859,1.594 0.344,0.32 0.789,0.484 1.328,0.484 0.731,0 1.309,-0.281 1.735,-0.843 0.426,-0.563 0.64,-1.34 0.64,-2.328 0,-0.5 -0.058,-0.993 -0.171,-1.469 -0.102,-0.481 -0.266,-0.961 -0.485,-1.438 z"
         style="fill:#4d4d4d;fill-opacity:1;fill-rule:nonzero;stroke:none"
         id="path138"
         inkscape:connector-curvature="0" /><path
         d="m 20.441,195.59 h 0.766 c 0.938,0 1.656,0.176 2.156,0.531 0.492,0.363 0.735,0.883 0.735,1.563 0,0.695 -0.274,1.218 -0.828,1.562 -0.551,0.352 -1.364,0.531 -2.438,0.531 -1.082,0 -1.894,-0.179 -2.437,-0.531 -0.551,-0.344 -0.829,-0.867 -0.829,-1.562 0,-0.68 0.25,-1.2 0.75,-1.563 0.493,-0.355 1.2,-0.531 2.125,-0.531 z m -2.718,-1.344 v -1.297 h -0.782 v 2.641 h 1.219 c -0.488,0.258 -0.848,0.594 -1.078,1 -0.238,0.406 -0.359,0.91 -0.359,1.515 0,0.957 0.382,1.739 1.14,2.344 0.75,0.602 1.742,0.906 2.969,0.906 1.219,0 2.211,-0.304 2.969,-0.906 0.761,-0.605 1.14,-1.387 1.14,-2.344 0,-0.605 -0.117,-1.109 -0.343,-1.515 -0.239,-0.406 -0.602,-0.742 -1.094,-1 h 3.562 v 1.265 h 0.782 v -3.906 h -0.782 v 1.297 z"
         style="fill:#4d4d4d;fill-opacity:1;fill-rule:nonzero;stroke:none"
         id="path140"
         inkscape:connector-curvature="0" /><path
         d="m 22.27,207.34 h -1.641 v -1.735 c 0,-0.667 0.148,-1.167 0.437,-1.5 0.282,-0.324 0.719,-0.484 1.313,-0.484 0.543,0 0.976,0.164 1.297,0.5 0.312,0.332 0.469,0.781 0.469,1.344 0,0.562 -0.172,1.015 -0.516,1.359 -0.344,0.344 -0.797,0.516 -1.359,0.516 z m -2.407,1.344 h 4.078 v 1.203 h 0.782 v -2.547 h -0.844 c 0.367,-0.305 0.637,-0.652 0.812,-1.047 0.164,-0.387 0.25,-0.84 0.25,-1.359 0,-0.868 -0.226,-1.555 -0.687,-2.063 -0.469,-0.5 -1.094,-0.75 -1.875,-0.75 -0.801,0 -1.422,0.285 -1.859,0.859 -0.446,0.582 -0.672,1.407 -0.672,2.469 v 1.891 h -0.532 c -0.593,0 -1.05,-0.184 -1.375,-0.547 -0.32,-0.355 -0.484,-0.855 -0.484,-1.5 0,-0.543 0.121,-0.977 0.359,-1.297 0.243,-0.312 0.602,-0.508 1.079,-0.578 v -0.703 h -1.563 c -0.207,0.469 -0.359,0.922 -0.453,1.359 -0.102,0.446 -0.156,0.879 -0.156,1.297 0,1.082 0.273,1.906 0.812,2.469 0.531,0.562 1.309,0.844 2.328,0.844 z"
         style="fill:#4d4d4d;fill-opacity:1;fill-rule:nonzero;stroke:none"
         id="path142"
         inkscape:connector-curvature="0" /><path
         d="m 22.379,217.277 c 0.836,-0.199 1.469,-0.57 1.906,-1.109 0.438,-0.543 0.656,-1.242 0.656,-2.094 0,-1.136 -0.375,-2.047 -1.125,-2.734 -0.75,-0.688 -1.742,-1.031 -2.984,-1.031 -1.25,0 -2.242,0.343 -2.984,1.031 -0.75,0.687 -1.125,1.598 -1.125,2.734 0,0.488 0.058,0.977 0.172,1.469 0.117,0.488 0.293,0.977 0.531,1.469 h 1.984 v -0.782 c -0.676,-0.105 -1.172,-0.328 -1.484,-0.671 -0.313,-0.344 -0.469,-0.836 -0.469,-1.469 0,-0.731 0.281,-1.281 0.844,-1.656 0.562,-0.368 1.406,-0.547 2.531,-0.547 1.117,0 1.961,0.179 2.531,0.547 0.563,0.363 0.844,0.914 0.844,1.656 0,0.57 -0.148,1.031 -0.453,1.375 -0.301,0.351 -0.758,0.594 -1.375,0.719 z"
         style="fill:#4d4d4d;fill-opacity:1;fill-rule:nonzero;stroke:none"
         id="path144"
         inkscape:connector-curvature="0" /><path
         d="m 20.973,225.34 v -5.797 h 0.062 c 1.055,0 1.844,0.195 2.375,0.594 0.531,0.394 0.797,0.976 0.797,1.75 0,0.582 -0.148,1.062 -0.453,1.437 -0.313,0.383 -0.774,0.656 -1.391,0.813 v 1.078 c 0.856,-0.219 1.5,-0.621 1.938,-1.203 0.426,-0.574 0.64,-1.328 0.64,-2.266 0,-1.148 -0.375,-2.062 -1.125,-2.75 -0.75,-0.687 -1.742,-1.031 -2.984,-1.031 -1.238,0 -2.234,0.336 -2.984,1.015 -0.75,0.676 -1.125,1.567 -1.125,2.672 0,1.176 0.367,2.078 1.093,2.703 0.719,0.633 1.774,0.961 3.157,0.985 z m -0.782,-1.578 c -0.906,-0.032 -1.586,-0.227 -2.046,-0.578 -0.457,-0.356 -0.688,-0.868 -0.688,-1.532 0,-0.617 0.234,-1.105 0.703,-1.468 0.461,-0.356 1.137,-0.571 2.031,-0.641 z"
         style="fill:#4d4d4d;fill-opacity:1;fill-rule:nonzero;stroke:none"
         id="path146"
         inkscape:connector-curvature="0" /><path
         d="M 41.758,7.887 C 41.039,7.949 40.883,8.105 40.32,9.293 l -3.984,9.078 H 36.008 L 32.68,10.512 C 31.664,8.184 31.477,7.934 30.695,7.887 V 7.59 h 3.172 v 0.297 c -0.765,0 -1.094,0.218 -1.094,0.656 0,0.203 0.063,0.422 0.141,0.625 l 0.734,1.875 h 4.188 L 38.492,9.512 C 38.68,9.074 38.805,8.668 38.805,8.434 38.805,8.043 38.523,7.902 37.68,7.887 V 7.59 h 4.078 z m -7.844,3.812 1.844,4.406 1.859,-4.406 z"
         style="fill:#000000;fill-opacity:1;fill-rule:nonzero;stroke:none"
         id="path148"
         inkscape:connector-curvature="0" /><path
         d="M 45.055,11.422 43.18,10.484 v -0.156 c 0.125,0.063 0.234,0.094 0.281,0.125 0.187,0.063 0.359,0.109 0.469,0.109 0.218,0 0.312,-0.156 0.312,-0.484 V 5.359 c 0,-0.343 -0.078,-0.578 -0.25,-0.671 C 43.836,4.594 43.695,4.562 43.258,4.547 V 4.391 h 2.859 v 0.156 c -0.812,0.015 -0.984,0.109 -0.984,0.609 v 6.25 z"
         style="fill:#000000;fill-opacity:1;fill-rule:nonzero;stroke:none"
         id="path150"
         inkscape:connector-curvature="0" /><path
         d="m 138.738,7.887 c -0.718,0.062 -0.875,0.218 -1.437,1.406 l -3.985,9.078 h -0.328 L 129.66,10.512 C 128.645,8.184 128.457,7.934 127.676,7.887 V 7.59 h 3.172 v 0.297 c -0.766,0 -1.094,0.218 -1.094,0.656 0,0.203 0.062,0.422 0.141,0.625 l 0.734,1.875 h 4.187 l 0.657,-1.531 c 0.187,-0.438 0.312,-0.844 0.312,-1.078 0,-0.391 -0.281,-0.532 -1.125,-0.547 V 7.59 h 4.078 z m -7.843,3.812 1.843,4.406 1.86,-4.406 z"
         style="fill:#000000;fill-opacity:1;fill-rule:nonzero;stroke:none"
         id="path152"
         inkscape:connector-curvature="0" /><path
         d="m 143.941,5.812 -0.125,0.063 c -0.39,-0.594 -0.531,-0.687 -1,-0.687 h -2.484 l 1.75,1.828 c 0.922,0.968 1.328,1.75 1.328,2.562 0,1.047 -0.844,1.844 -1.922,1.844 -0.562,0 -1.109,-0.219 -1.5,-0.641 -0.328,-0.359 -0.484,-0.687 -0.656,-1.422 l 0.219,-0.062 c 0.406,1.031 0.781,1.359 1.5,1.359 0.875,0 1.469,-0.594 1.469,-1.468 0,-0.813 -0.485,-1.782 -1.344,-2.704 l -1.86,-1.968 V 4.391 h 4.063 z"
         style="fill:#000000;fill-opacity:1;fill-rule:nonzero;stroke:none"
         id="path154"
         inkscape:connector-curvature="0" /><path
         d="m 245.891,234.133 v -0.313 c 1.343,-0.078 1.547,-0.25 1.547,-1.437 v -7.094 c 0,-1.187 -0.219,-1.391 -1.547,-1.453 v -0.297 h 5.343 c 1.25,0 2.391,0.344 2.985,0.875 0.578,0.516 0.89,1.234 0.89,2 0,0.703 -0.281,1.344 -0.781,1.813 -0.484,0.437 -0.906,0.625 -1.953,0.875 0.828,0.218 1.172,0.375 1.547,0.703 0.406,0.359 0.64,0.953 0.64,1.609 0,1.781 -1.421,2.719 -4.187,2.719 z m 3.171,-5.375 c 1.547,0 2.297,-0.078 2.86,-0.328 0.922,-0.375 1.344,-1.016 1.344,-2.032 0,-0.859 -0.328,-1.484 -0.969,-1.843 -0.516,-0.297 -1.172,-0.422 -2.219,-0.422 -0.797,0 -1.016,0.14 -1.016,0.656 z m 0,0.64 v 3.657 c 0,0.343 0.11,0.484 0.36,0.484 h 0.703 c 1.844,0 2.813,-0.766 2.813,-2.187 0,-1.25 -0.844,-1.954 -2.36,-1.954 z"
         style="fill:#000000;fill-opacity:1;fill-rule:nonzero;stroke:none"
         id="path156"
         inkscape:connector-curvature="0" /><path
         d="m 259.344,227.371 -1.875,-0.937 v -0.157 c 0.125,0.063 0.234,0.094 0.281,0.125 0.188,0.063 0.359,0.11 0.469,0.11 0.219,0 0.312,-0.157 0.312,-0.485 v -4.718 c 0,-0.344 -0.078,-0.579 -0.25,-0.672 -0.156,-0.094 -0.297,-0.125 -0.734,-0.141 v -0.156 h 2.859 v 0.156 c -0.812,0.016 -0.984,0.109 -0.984,0.609 v 6.25 z"
         style="fill:#000000;fill-opacity:1;fill-rule:nonzero;stroke:none"
         id="path158"
         inkscape:connector-curvature="0" /><path
         d="m 266.449,221.762 -0.125,0.062 c -0.39,-0.594 -0.531,-0.687 -1,-0.687 h -2.484 l 1.75,1.828 c 0.922,0.969 1.328,1.75 1.328,2.562 0,1.047 -0.844,1.844 -1.922,1.844 -0.562,0 -1.109,-0.219 -1.5,-0.641 -0.328,-0.359 -0.484,-0.687 -0.656,-1.421 l 0.219,-0.063 c 0.406,1.031 0.781,1.359 1.5,1.359 0.875,0 1.468,-0.593 1.468,-1.468 0,-0.813 -0.484,-1.782 -1.343,-2.703 l -1.86,-1.969 v -0.125 h 4.063 z"
         style="fill:#000000;fill-opacity:1;fill-rule:nonzero;stroke:none"
         id="path160"
         inkscape:connector-curvature="0" /><path
         d="m 282.633,272.016 v -0.313 c 1.344,-0.078 1.547,-0.25 1.547,-1.437 v -7.094 c 0,-1.188 -0.219,-1.391 -1.547,-1.453 v -0.297 h 5.344 c 1.25,0 2.39,0.344 2.984,0.875 0.578,0.515 0.891,1.234 0.891,2 0,0.703 -0.282,1.344 -0.782,1.812 -0.484,0.438 -0.906,0.625 -1.953,0.875 0.828,0.219 1.172,0.375 1.547,0.704 0.406,0.359 0.641,0.953 0.641,1.609 0,1.781 -1.422,2.719 -4.188,2.719 z m 3.172,-5.375 c 1.547,0 2.297,-0.079 2.859,-0.329 0.922,-0.374 1.344,-1.015 1.344,-2.031 0,-0.859 -0.328,-1.484 -0.969,-1.843 -0.516,-0.297 -1.172,-0.422 -2.219,-0.422 -0.797,0 -1.015,0.14 -1.015,0.656 z m 0,0.64 v 3.657 c 0,0.343 0.109,0.484 0.359,0.484 h 0.703 c 1.844,0 2.813,-0.766 2.813,-2.188 0,-1.25 -0.844,-1.953 -2.36,-1.953 z"
         style="fill:#000000;fill-opacity:1;fill-rule:nonzero;stroke:none"
         id="path162"
         inkscape:connector-curvature="0" /><path
         d="m 297.992,259.645 -0.125,0.062 c -0.39,-0.594 -0.531,-0.687 -1,-0.687 h -2.484 l 1.75,1.828 c 0.922,0.968 1.328,1.75 1.328,2.562 0,1.047 -0.844,1.844 -1.922,1.844 -0.562,0 -1.109,-0.219 -1.5,-0.641 -0.328,-0.359 -0.484,-0.687 -0.656,-1.422 l 0.219,-0.062 c 0.406,1.031 0.781,1.359 1.5,1.359 0.875,0 1.468,-0.593 1.468,-1.468 0,-0.813 -0.484,-1.782 -1.343,-2.704 l -1.86,-1.968 v -0.125 h 4.063 z"
         style="fill:#000000;fill-opacity:1;fill-rule:nonzero;stroke:none"
         id="path164"
         inkscape:connector-curvature="0" /><path
         d="m 301.289,265.254 -1.875,-0.938 v -0.156 c 0.125,0.063 0.234,0.094 0.281,0.125 0.188,0.063 0.36,0.11 0.469,0.11 0.219,0 0.313,-0.157 0.313,-0.485 v -4.719 c 0,-0.343 -0.079,-0.578 -0.25,-0.671 -0.157,-0.094 -0.297,-0.125 -0.735,-0.141 v -0.156 h 2.86 v 0.156 c -0.813,0.016 -0.985,0.109 -0.985,0.609 v 6.25 z"
         style="fill:#000000;fill-opacity:1;fill-rule:nonzero;stroke:none"
         id="path166"
         inkscape:connector-curvature="0" /><path
         d="m 168.801,231.879 -0.141,3.609 h -0.344 c -0.093,-0.328 -0.343,-0.531 -0.671,-0.531 -0.141,0 -0.375,0.063 -0.625,0.156 -0.782,0.25 -1.579,0.375 -2.329,0.375 -1.312,0 -2.64,-0.5 -3.64,-1.375 -1.11,-0.984 -1.719,-2.484 -1.719,-4.234 0,-1.484 0.469,-2.859 1.297,-3.781 0.953,-1.032 2.422,-1.641 4.016,-1.641 1.796,0 3.39,0.734 4.359,2.031 l -0.281,0.282 c -1.188,-1.141 -2.25,-1.61 -3.578,-1.61 -1,0 -1.891,0.313 -2.579,0.922 -0.89,0.781 -1.39,2.219 -1.39,4 0,2.891 1.5,4.766 3.812,4.766 0.922,0 1.75,-0.328 2.391,-0.969 0.516,-0.516 0.75,-0.969 1.047,-2 z"
         style="fill:#000000;fill-opacity:1;fill-rule:nonzero;stroke:none"
         id="path168"
         inkscape:connector-curvature="0" /><path
         d="m 172.598,228.508 -1.875,-0.938 v -0.156 c 0.125,0.063 0.234,0.094 0.281,0.125 0.187,0.063 0.359,0.109 0.469,0.109 0.218,0 0.312,-0.156 0.312,-0.484 v -4.719 c 0,-0.343 -0.078,-0.578 -0.25,-0.672 -0.156,-0.093 -0.297,-0.125 -0.734,-0.14 v -0.156 h 2.859 v 0.156 c -0.812,0.015 -0.984,0.109 -0.984,0.609 v 6.25 z"
         style="fill:#000000;fill-opacity:1;fill-rule:nonzero;stroke:none"
         id="path170"
         inkscape:connector-curvature="0" /><path
         d="m 179.703,222.898 -0.125,0.063 c -0.39,-0.594 -0.531,-0.688 -1,-0.688 h -2.484 l 1.75,1.829 c 0.922,0.968 1.328,1.75 1.328,2.562 0,1.047 -0.844,1.844 -1.922,1.844 -0.562,0 -1.109,-0.219 -1.5,-0.641 -0.328,-0.359 -0.484,-0.687 -0.656,-1.422 l 0.218,-0.062 c 0.407,1.031 0.782,1.359 1.5,1.359 0.876,0 1.469,-0.594 1.469,-1.469 0,-0.812 -0.484,-1.781 -1.343,-2.703 l -1.86,-1.968 v -0.125 h 4.063 z"
         style="fill:#000000;fill-opacity:1;fill-rule:nonzero;stroke:none"
         id="path172"
         inkscape:connector-curvature="0" /><path
         d="m 135.844,270.141 -0.141,3.609 h -0.344 c -0.093,-0.328 -0.343,-0.531 -0.671,-0.531 -0.141,0 -0.376,0.062 -0.626,0.156 -0.781,0.25 -1.578,0.375 -2.328,0.375 -1.312,0 -2.64,-0.5 -3.64,-1.375 -1.11,-0.984 -1.719,-2.484 -1.719,-4.234 0,-1.485 0.469,-2.86 1.297,-3.782 0.953,-1.031 2.422,-1.64 4.016,-1.64 1.796,0 3.39,0.734 4.359,2.031 l -0.281,0.281 c -1.188,-1.14 -2.25,-1.609 -3.578,-1.609 -1,0 -1.891,0.312 -2.579,0.922 -0.89,0.781 -1.39,2.218 -1.39,4 0,2.89 1.5,4.765 3.812,4.765 0.922,0 1.75,-0.328 2.391,-0.968 0.516,-0.516 0.75,-0.969 1.047,-2 z"
         style="fill:#000000;fill-opacity:1;fill-rule:nonzero;stroke:none"
         id="path174"
         inkscape:connector-curvature="0" /><path
         d="m 141.547,261.16 -0.125,0.063 c -0.391,-0.594 -0.531,-0.688 -1,-0.688 h -2.484 l 1.75,1.828 c 0.921,0.969 1.328,1.75 1.328,2.563 0,1.047 -0.844,1.844 -1.922,1.844 -0.563,0 -1.11,-0.219 -1.5,-0.641 -0.328,-0.359 -0.485,-0.688 -0.656,-1.422 l 0.218,-0.062 c 0.406,1.031 0.782,1.359 1.5,1.359 0.875,0 1.469,-0.594 1.469,-1.469 0,-0.812 -0.484,-1.781 -1.344,-2.703 l -1.859,-1.969 v -0.125 h 4.062 z"
         style="fill:#000000;fill-opacity:1;fill-rule:nonzero;stroke:none"
         id="path176"
         inkscape:connector-curvature="0" /><path
         d="m 144.84,266.77 -1.875,-0.938 v -0.156 c 0.125,0.062 0.234,0.094 0.281,0.125 0.188,0.062 0.359,0.109 0.469,0.109 0.219,0 0.312,-0.156 0.312,-0.484 v -4.719 c 0,-0.344 -0.078,-0.578 -0.25,-0.672 -0.156,-0.094 -0.297,-0.125 -0.734,-0.14 v -0.157 h 2.859 v 0.157 c -0.812,0.015 -0.984,0.109 -0.984,0.609 v 6.25 z"
         style="fill:#000000;fill-opacity:1;fill-rule:nonzero;stroke:none"
         id="path178"
         inkscape:connector-curvature="0" /><path
         d="m 251.828,9.438 c 0,-1.157 -0.187,-1.36 -1.406,-1.454 V 7.688 h 4.547 c 1.859,0 3.547,0.531 4.531,1.421 1.047,0.953 1.625,2.375 1.625,3.922 0,1.438 -0.469,2.688 -1.359,3.563 -1.078,1.109 -2.828,1.687 -5.016,1.687 h -4.328 v -0.312 c 1.266,-0.11 1.406,-0.25 1.406,-1.438 z m 1.641,7.624 c 0,0.5 0.172,0.626 0.828,0.626 1.375,0 2.422,-0.25 3.187,-0.797 1.25,-0.86 1.907,-2.25 1.907,-3.969 0,-1.891 -0.657,-3.234 -1.953,-3.984 -0.813,-0.469 -1.75,-0.657 -3.141,-0.657 -0.641,0 -0.828,0.141 -0.828,0.657 z"
         style="fill:#000000;fill-opacity:1;fill-rule:nonzero;stroke:none"
         id="path180"
         inkscape:connector-curvature="0" /><path
         d="m 264.766,11.516 -1.875,-0.938 v -0.156 c 0.125,0.062 0.234,0.094 0.281,0.125 0.187,0.062 0.359,0.109 0.469,0.109 0.218,0 0.312,-0.156 0.312,-0.484 V 5.453 c 0,-0.344 -0.078,-0.578 -0.25,-0.672 -0.156,-0.093 -0.297,-0.125 -0.734,-0.14 V 4.484 h 2.859 v 0.157 c -0.812,0.015 -0.984,0.109 -0.984,0.609 v 6.25 z"
         style="fill:#000000;fill-opacity:1;fill-rule:nonzero;stroke:none"
         id="path182"
         inkscape:connector-curvature="0" /><path
         d="m 364.523,9.438 c 0,-1.157 -0.187,-1.36 -1.406,-1.454 V 7.688 h 4.547 c 1.859,0 3.547,0.531 4.531,1.421 1.047,0.953 1.625,2.375 1.625,3.922 0,1.438 -0.468,2.688 -1.359,3.563 -1.078,1.109 -2.828,1.687 -5.016,1.687 h -4.328 v -0.312 c 1.266,-0.11 1.406,-0.25 1.406,-1.438 z m 1.641,7.624 c 0,0.5 0.172,0.626 0.828,0.626 1.375,0 2.422,-0.25 3.188,-0.797 1.25,-0.86 1.906,-2.25 1.906,-3.969 0,-1.891 -0.656,-3.234 -1.953,-3.984 -0.813,-0.469 -1.75,-0.657 -3.141,-0.657 -0.64,0 -0.828,0.141 -0.828,0.657 z"
         style="fill:#000000;fill-opacity:1;fill-rule:nonzero;stroke:none"
         id="path184"
         inkscape:connector-curvature="0" /><path
         d="m 379.367,5.906 -0.125,0.063 c -0.39,-0.594 -0.531,-0.688 -1,-0.688 h -2.484 l 1.75,1.828 c 0.922,0.969 1.328,1.75 1.328,2.563 0,1.047 -0.844,1.844 -1.922,1.844 -0.562,0 -1.109,-0.219 -1.5,-0.641 -0.328,-0.359 -0.484,-0.687 -0.656,-1.422 l 0.219,-0.062 c 0.406,1.031 0.781,1.359 1.5,1.359 0.875,0 1.468,-0.594 1.468,-1.469 0,-0.812 -0.484,-1.781 -1.343,-2.703 l -1.86,-1.969 V 4.484 h 4.063 z"
         style="fill:#000000;fill-opacity:1;fill-rule:nonzero;stroke:none"
         id="path186"
         inkscape:connector-curvature="0" /><g
         id="g188"
         transform="matrix(1,0,0,-1,0,480)"><path
           d="m 256.805,266.043 v 82.523"
           style="fill:none;stroke:#4d4d4d;stroke-width:0.60000002;stroke-linecap:butt;stroke-linejoin:miter;stroke-miterlimit:4;stroke-dasharray:3.6, 1.2;stroke-dashoffset:0;stroke-opacity:1"
           id="path190"
           inkscape:connector-curvature="0" /></g><g
         id="g192"
         transform="matrix(1,0,0,-1,0,480)"><path
           d="m 135.965,450.277 v 4.227"
           style="fill:none;stroke:#000000;stroke-width:0.75;stroke-linecap:butt;stroke-linejoin:miter;stroke-miterlimit:4;stroke-dasharray:none;stroke-opacity:1"
           id="path194"
           inkscape:connector-curvature="0" /></g><g
         id="g196"
         transform="matrix(1,0,0,-1,0,480)"><path
           d="m 256.801,450.223 v 4.23"
           style="fill:none;stroke:#000000;stroke-width:0.75;stroke-linecap:butt;stroke-linejoin:miter;stroke-miterlimit:4;stroke-dasharray:none;stroke-opacity:1"
           id="path198"
           inkscape:connector-curvature="0" /></g><g
         id="g200"
         transform="matrix(1,0,0,-1,0,480)"><path
           d="m 368.926,450.137 v 4.226"
           style="fill:none;stroke:#000000;stroke-width:0.75;stroke-linecap:butt;stroke-linejoin:miter;stroke-miterlimit:4;stroke-dasharray:none;stroke-opacity:1"
           id="path202"
           inkscape:connector-curvature="0" /></g><g
         id="g204"
         transform="matrix(1,0,0,-1,0,480)"><path
           d="m 136.789,378.281 h 153.66"
           style="fill:none;stroke:#ffffff;stroke-width:1.5;stroke-linecap:butt;stroke-linejoin:miter;stroke-miterlimit:4;stroke-dasharray:none;stroke-opacity:1"
           id="path206"
           inkscape:connector-curvature="0" /></g><path
         d="m 133.375,101.961 c 0,0.926 0.223,1.633 0.672,2.125 0.457,0.5 1.109,0.75 1.953,0.75 0.844,0 1.504,-0.25 1.984,-0.75 0.477,-0.492 0.719,-1.199 0.719,-2.125 0,-0.906 -0.242,-1.625 -0.719,-2.156 -0.48,-0.52 -1.14,-0.782 -1.984,-0.782 -0.836,0 -1.48,0.258 -1.938,0.766 -0.46,0.52 -0.687,1.242 -0.687,2.172 z"
         style="fill:#000000;fill-opacity:1;fill-rule:nonzero;stroke:none"
         id="path208"
         inkscape:connector-curvature="0" /><g
         id="g210"
         transform="matrix(1,0,0,-1,0,480)"><path
           d="m 445.434,286.469 v 81.996"
           style="fill:none;stroke:#000000;stroke-width:0.283465;stroke-linecap:butt;stroke-linejoin:miter;stroke-miterlimit:4;stroke-dasharray:none;stroke-opacity:1"
           id="path212"
           inkscape:connector-curvature="0" /></g><path
         d="m 139.336,448.875 h 240.59 l -65.528,-66.148 65.528,-66.153 h -240.59 l -65.531,66.153 z"
         style="fill:#b3b3b3;fill-opacity:0.31282103;fill-rule:nonzero;stroke:none"
         id="path214"
         inkscape:connector-curvature="0" /><path
         d="m 149.457,382.715 c 0,-20.899 -16.941,-37.84 -37.84,-37.84 -10.035,0 -19.66,3.984 -26.758,11.082 -7.097,7.098 -11.082,16.723 -11.082,26.758 0,20.898 16.942,37.84 37.84,37.84 20.899,0 37.84,-16.942 37.84,-37.84 z"
         style="fill:#b2fdff;fill-opacity:0.50980398;fill-rule:nonzero;stroke:none"
         id="path216"
         inkscape:connector-curvature="0" /><g
         id="g218"
         transform="matrix(1,0,0,-1,0,480)"><path
           d="m 149.457,97.285 c 0,20.899 -16.941,37.84 -37.84,37.84 -10.035,0 -19.66,-3.984 -26.758,-11.082 -7.097,-7.098 -11.082,-16.723 -11.082,-26.758 0,-20.898 16.942,-37.84 37.84,-37.84 20.899,0 37.84,16.942 37.84,37.84 z"
           style="fill:none;stroke:#000000;stroke-width:0.57662398;stroke-linecap:round;stroke-linejoin:round;stroke-miterlimit:4;stroke-dasharray:none;stroke-opacity:1"
           id="path220"
           inkscape:connector-curvature="0" /></g><path
         d="m 112.191,382.715 c 0,-0.317 -0.257,-0.574 -0.574,-0.574 -0.316,0 -0.574,0.257 -0.574,0.574 0,0.316 0.258,0.574 0.574,0.574 0.317,0 0.574,-0.258 0.574,-0.574 z"
         style="fill:#b2fdff;fill-opacity:0.50980398;fill-rule:nonzero;stroke:none"
         id="path222"
         inkscape:connector-curvature="0" /><g
         id="g224"
         transform="matrix(1,0,0,-1,0,480)"><path
           d="m 112.191,97.285 c 0,0.317 -0.257,0.574 -0.574,0.574 -0.316,0 -0.574,-0.257 -0.574,-0.574 0,-0.316 0.258,-0.574 0.574,-0.574 0.317,0 0.574,0.258 0.574,0.574 z"
           style="fill:none;stroke:#000000;stroke-width:0.700881;stroke-linecap:butt;stroke-linejoin:miter;stroke-miterlimit:4;stroke-dasharray:none;stroke-opacity:1"
           id="path226"
           inkscape:connector-curvature="0" /></g><g
         id="g228"
         transform="matrix(1,0,0,-1,0,480)"><path
           d="m 111.652,59.277 v 76.016"
           style="fill:none;stroke:#000000;stroke-width:1.15324903;stroke-linecap:butt;stroke-linejoin:miter;stroke-miterlimit:4;stroke-dasharray:none;stroke-opacity:1"
           id="path230"
           inkscape:connector-curvature="0" /></g><path
         d="m 12.336,465.602 c -1.484,-0.954 -2.094,-1.469 -2.828,-2.391 -1.422,-1.75 -2.125,-3.75 -2.125,-6.078 0,-2.547 0.75,-4.5 2.5,-6.547 0.828,-0.953 1.344,-1.406 2.39,-2.047 l 0.235,0.328 c -1.594,1.266 -2.156,1.953 -2.703,3.453 -0.469,1.344 -0.688,2.86 -0.688,4.86 0,2.109 0.25,3.75 0.797,4.984 0.563,1.234 1.156,1.969 2.594,3.125 z"
         style="fill:#000000;fill-opacity:1;fill-rule:nonzero;stroke:none"
         id="path232"
         inkscape:connector-curvature="0" /><path
         d="m 21.953,453.398 c -0.344,-0.265 -0.578,-0.375 -0.891,-0.375 -0.453,0 -0.593,0.282 -0.593,1.157 v 3.906 c 0,1.047 -0.094,1.625 -0.407,2.094 -0.437,0.718 -1.296,1.109 -2.468,1.109 -1.891,0 -3.36,-0.984 -3.36,-2.25 0,-0.453 0.391,-0.859 0.86,-0.859 0.468,0 0.89,0.406 0.89,0.843 0,0.079 -0.015,0.188 -0.031,0.329 -0.047,0.171 -0.062,0.328 -0.062,0.468 0,0.547 0.64,0.985 1.437,0.985 0.984,0 1.516,-0.578 1.516,-1.657 v -1.218 c -3.078,-1.25 -3.422,-1.407 -4.282,-2.157 -0.437,-0.406 -0.718,-1.093 -0.718,-1.75 0,-1.25 0.89,-2.14 2.109,-2.14 0.875,0 1.703,0.422 2.922,1.469 0.094,-1.047 0.453,-1.469 1.281,-1.469 0.672,0 1.094,0.25 1.797,1 z m -3.109,1.141 c 0,-0.609 -0.094,-0.797 -0.516,-1.031 -0.484,-0.281 -1.031,-0.469 -1.453,-0.469 -0.703,0 -1.266,0.688 -1.266,1.547 v 0.078 c 0,1.188 0.813,1.906 3.235,2.781 z"
         style="fill:#000000;fill-opacity:1;fill-rule:nonzero;stroke:none"
         id="path234"
         inkscape:connector-curvature="0" /><path
         d="m 22.742,448.539 c 1.469,0.969 2.078,1.484 2.813,2.406 1.422,1.735 2.125,3.735 2.125,6.078 0,2.563 -0.75,4.5 -2.5,6.547 -0.828,0.953 -1.344,1.391 -2.391,2.032 l -0.234,-0.313 c 1.609,-1.266 2.14,-1.969 2.703,-3.469 0.484,-1.328 0.703,-2.859 0.703,-4.859 0,-2.078 -0.266,-3.734 -0.797,-4.953 -0.562,-1.266 -1.172,-1.985 -2.609,-3.141 z"
         style="fill:#000000;fill-opacity:1;fill-rule:nonzero;stroke:none"
         id="path236"
         inkscape:connector-curvature="0" /><path
         d="m 433.664,375.254 h -1.187 v 0.781 h 1.187 v 2.422 h 1.344 v -2.422 h 2.547 v -0.781 h -2.547 v -4.938 c 0,-0.668 0.062,-1.093 0.187,-1.281 0.133,-0.18 0.375,-0.265 0.719,-0.265 0.344,0 0.594,0.101 0.75,0.312 0.164,0.207 0.254,0.539 0.266,1 h 1.015 c -0.031,-0.711 -0.226,-1.23 -0.578,-1.562 -0.344,-0.321 -0.871,-0.485 -1.578,-0.485 -0.781,0 -1.336,0.172 -1.656,0.516 -0.313,0.351 -0.469,0.941 -0.469,1.765 z"
         style="fill:#4d4d4d;fill-opacity:1;fill-rule:nonzero;stroke:none"
         id="path238"
         inkscape:connector-curvature="0" /><path
         d="m 438.777,378.457 c 0,0.227 0.082,0.422 0.25,0.578 0.164,0.164 0.364,0.25 0.594,0.25 0.219,0 0.41,-0.086 0.578,-0.25 0.164,-0.156 0.25,-0.351 0.25,-0.578 0,-0.23 -0.086,-0.43 -0.25,-0.594 -0.156,-0.156 -0.351,-0.234 -0.578,-0.234 -0.23,0 -0.43,0.078 -0.594,0.234 -0.168,0.164 -0.25,0.364 -0.25,0.594 z m 1.719,-9.422 h 1.281 v -0.781 h -3.906 v 0.781 h 1.281 v 6.219 h -1.281 v 0.781 h 2.625 z"
         style="fill:#4d4d4d;fill-opacity:1;fill-rule:nonzero;stroke:none"
         id="path240"
         inkscape:connector-curvature="0" /><path
         d="m 449.145,374.52 c 0.257,0.57 0.593,1.003 1,1.296 0.406,0.289 0.875,0.438 1.406,0.438 0.812,0 1.414,-0.258 1.812,-0.766 0.407,-0.5 0.61,-1.261 0.61,-2.281 v -4.172 h 1.218 v -0.781 h -3.734 v 0.781 h 1.172 v 4.016 c 0,0.789 -0.121,1.351 -0.359,1.687 -0.231,0.344 -0.618,0.516 -1.157,0.516 -0.605,0 -1.062,-0.231 -1.375,-0.688 -0.312,-0.449 -0.468,-1.105 -0.468,-1.968 v -3.563 h 1.171 v -0.781 h -3.687 v 0.781 h 1.172 v 4.063 c 0,0.781 -0.121,1.332 -0.36,1.656 -0.23,0.332 -0.617,0.5 -1.156,0.5 -0.605,0 -1.07,-0.231 -1.39,-0.688 -0.313,-0.449 -0.469,-1.105 -0.469,-1.968 v -3.563 h 1.172 v -0.781 h -3.735 v 0.781 h 1.219 v 6.235 h -1.281 v 0.765 h 2.625 v -1.375 c 0.25,0.508 0.566,0.899 0.953,1.172 0.383,0.281 0.82,0.422 1.312,0.422 0.602,0 1.11,-0.152 1.516,-0.453 0.406,-0.305 0.676,-0.731 0.813,-1.281 z"
         style="fill:#4d4d4d;fill-opacity:1;fill-rule:nonzero;stroke:none"
         id="path242"
         inkscape:connector-curvature="0" /><path
         d="m 462.992,372.004 h -5.797 v -0.063 c 0,-1.054 0.196,-1.843 0.594,-2.375 0.395,-0.531 0.977,-0.796 1.75,-0.796 0.582,0 1.063,0.148 1.438,0.453 0.382,0.312 0.656,0.773 0.812,1.39 h 1.078 c -0.219,-0.855 -0.621,-1.5 -1.203,-1.937 -0.574,-0.426 -1.328,-0.641 -2.266,-0.641 -1.148,0 -2.062,0.375 -2.75,1.125 -0.687,0.75 -1.031,1.742 -1.031,2.985 0,1.238 0.336,2.234 1.016,2.984 0.676,0.75 1.566,1.125 2.672,1.125 1.175,0 2.078,-0.367 2.703,-1.094 0.633,-0.719 0.961,-1.773 0.984,-3.156 z m -1.578,0.781 c -0.031,0.906 -0.226,1.586 -0.578,2.047 -0.356,0.457 -0.867,0.688 -1.531,0.688 -0.617,0 -1.106,-0.235 -1.469,-0.704 -0.356,-0.461 -0.57,-1.136 -0.641,-2.031 z"
         style="fill:#4d4d4d;fill-opacity:1;fill-rule:nonzero;stroke:none"
         id="path244"
         inkscape:connector-curvature="0" /><path
         d="M 64.582,427.125 H 62.77 v 0.781 c 0.585,0.008 1.023,0.188 1.312,0.532 0.281,0.351 0.422,0.863 0.422,1.531 0,0.601 -0.109,1.062 -0.328,1.375 -0.227,0.32 -0.563,0.484 -1,0.484 -0.344,0 -0.617,-0.117 -0.828,-0.344 -0.207,-0.23 -0.43,-0.718 -0.672,-1.468 l -0.328,-0.969 c -0.219,-0.668 -0.489,-1.152 -0.813,-1.453 -0.32,-0.305 -0.734,-0.453 -1.234,-0.453 -0.707,0 -1.266,0.257 -1.672,0.781 -0.406,0.519 -0.609,1.242 -0.609,2.172 0,0.406 0.058,0.832 0.171,1.281 0.106,0.457 0.258,0.93 0.454,1.422 h 1.703 v -0.781 c -0.5,-0.024 -0.891,-0.2 -1.172,-0.532 -0.281,-0.336 -0.422,-0.781 -0.422,-1.343 0,-0.575 0.101,-1.008 0.297,-1.297 0.199,-0.293 0.496,-0.438 0.89,-0.438 0.336,0 0.602,0.11 0.797,0.328 0.2,0.227 0.399,0.672 0.594,1.328 l 0.344,1.063 c 0.23,0.738 0.515,1.27 0.859,1.594 0.344,0.32 0.789,0.484 1.328,0.484 0.731,0 1.309,-0.281 1.735,-0.844 0.425,-0.562 0.64,-1.339 0.64,-2.328 0,-0.5 -0.058,-0.992 -0.172,-1.469 -0.101,-0.48 -0.265,-0.96 -0.484,-1.437 z"
         style="fill:#4d4d4d;fill-opacity:1;fill-rule:nonzero;stroke:none"
         id="path246"
         inkscape:connector-curvature="0" /><path
         d="m 60.738,436.312 h 0.766 c 0.937,0 1.656,0.176 2.156,0.532 0.492,0.363 0.735,0.883 0.735,1.562 0,0.696 -0.274,1.219 -0.829,1.563 -0.55,0.351 -1.363,0.531 -2.437,0.531 -1.082,0 -1.895,-0.18 -2.438,-0.531 -0.55,-0.344 -0.828,-0.867 -0.828,-1.563 0,-0.679 0.25,-1.199 0.75,-1.562 0.492,-0.356 1.199,-0.532 2.125,-0.532 z m -2.718,-1.343 v -1.297 h -0.782 v 2.64 h 1.219 c -0.488,0.258 -0.848,0.594 -1.078,1 -0.238,0.407 -0.359,0.911 -0.359,1.516 0,0.957 0.382,1.738 1.14,2.344 0.75,0.601 1.742,0.906 2.969,0.906 1.219,0 2.211,-0.305 2.969,-0.906 0.761,-0.606 1.14,-1.387 1.14,-2.344 0,-0.605 -0.117,-1.109 -0.343,-1.516 -0.239,-0.406 -0.602,-0.742 -1.094,-1 h 3.562 v 1.266 h 0.782 v -3.906 h -0.782 v 1.297 z"
         style="fill:#4d4d4d;fill-opacity:1;fill-rule:nonzero;stroke:none"
         id="path248"
         inkscape:connector-curvature="0" /><path
         d="m 62.566,448.062 h -1.64 v -1.734 c 0,-0.668 0.148,-1.168 0.437,-1.5 0.282,-0.324 0.719,-0.484 1.313,-0.484 0.543,0 0.976,0.164 1.297,0.5 0.312,0.332 0.468,0.781 0.468,1.344 0,0.562 -0.171,1.015 -0.515,1.359 -0.344,0.344 -0.797,0.515 -1.36,0.515 z m -2.406,1.344 h 4.078 v 1.203 h 0.782 v -2.547 h -0.844 c 0.367,-0.304 0.636,-0.652 0.812,-1.046 0.164,-0.387 0.25,-0.84 0.25,-1.36 0,-0.867 -0.226,-1.554 -0.687,-2.062 -0.469,-0.5 -1.094,-0.75 -1.875,-0.75 -0.801,0 -1.422,0.285 -1.86,0.859 -0.445,0.582 -0.671,1.406 -0.671,2.469 v 1.89 h -0.532 c -0.593,0 -1.051,-0.183 -1.375,-0.546 -0.32,-0.356 -0.484,-0.856 -0.484,-1.5 0,-0.543 0.121,-0.977 0.359,-1.297 0.242,-0.313 0.602,-0.508 1.078,-0.578 v -0.703 h -1.562 c -0.207,0.468 -0.359,0.921 -0.453,1.359 -0.102,0.445 -0.156,0.879 -0.156,1.297 0,1.082 0.273,1.906 0.812,2.468 0.531,0.563 1.309,0.844 2.328,0.844 z"
         style="fill:#4d4d4d;fill-opacity:1;fill-rule:nonzero;stroke:none"
         id="path250"
         inkscape:connector-curvature="0" /><path
         d="m 62.676,458 c 0.836,-0.199 1.469,-0.57 1.906,-1.109 0.438,-0.543 0.656,-1.243 0.656,-2.094 0,-1.137 -0.375,-2.047 -1.125,-2.735 -0.75,-0.687 -1.742,-1.031 -2.984,-1.031 -1.25,0 -2.242,0.344 -2.984,1.031 -0.75,0.688 -1.125,1.598 -1.125,2.735 0,0.488 0.058,0.976 0.171,1.469 0.118,0.488 0.293,0.976 0.532,1.468 h 1.984 v -0.781 c -0.676,-0.105 -1.172,-0.328 -1.484,-0.672 -0.313,-0.343 -0.469,-0.836 -0.469,-1.469 0,-0.73 0.281,-1.281 0.844,-1.656 0.562,-0.367 1.406,-0.547 2.531,-0.547 1.117,0 1.961,0.18 2.531,0.547 0.563,0.364 0.844,0.914 0.844,1.656 0,0.571 -0.149,1.032 -0.453,1.376 -0.301,0.351 -0.758,0.593 -1.375,0.718 z"
         style="fill:#4d4d4d;fill-opacity:1;fill-rule:nonzero;stroke:none"
         id="path252"
         inkscape:connector-curvature="0" /><path
         d="m 61.27,466.062 v -5.796 h 0.062 c 1.055,0 1.844,0.195 2.375,0.593 0.531,0.395 0.797,0.977 0.797,1.75 0,0.582 -0.149,1.063 -0.453,1.438 -0.313,0.383 -0.774,0.656 -1.391,0.812 v 1.079 c 0.856,-0.219 1.5,-0.622 1.938,-1.204 0.425,-0.574 0.64,-1.328 0.64,-2.265 0,-1.149 -0.375,-2.063 -1.125,-2.75 -0.75,-0.688 -1.742,-1.031 -2.984,-1.031 -1.238,0 -2.234,0.335 -2.984,1.015 -0.75,0.676 -1.125,1.567 -1.125,2.672 0,1.176 0.367,2.078 1.093,2.703 0.719,0.633 1.774,0.961 3.157,0.984 z m -0.782,-1.578 c -0.906,-0.031 -1.586,-0.226 -2.047,-0.578 -0.457,-0.355 -0.687,-0.867 -0.687,-1.531 0,-0.617 0.234,-1.105 0.703,-1.469 0.461,-0.355 1.137,-0.57 2.031,-0.64 z"
         style="fill:#4d4d4d;fill-opacity:1;fill-rule:nonzero;stroke:none"
         id="path254"
         inkscape:connector-curvature="0" /><path
         d="m 285.445,383.125 c 0,-36.551 -29.633,-66.184 -66.183,-66.184 -17.551,0 -34.383,6.973 -46.797,19.387 -12.41,12.41 -19.383,29.242 -19.383,46.797 0,36.551 29.629,66.18 66.18,66.18 36.55,0 66.183,-29.629 66.183,-66.18 z"
         style="fill:#b2fdff;fill-opacity:0.50980398;fill-rule:nonzero;stroke:none"
         id="path256"
         inkscape:connector-curvature="0" /><g
         id="g258"
         transform="matrix(1,0,0,-1,0,480)"><path
           d="m 285.445,96.875 c 0,36.551 -29.633,66.184 -66.183,66.184 -17.551,0 -34.383,-6.973 -46.797,-19.387 -12.41,-12.41 -19.383,-29.242 -19.383,-46.797 0,-36.551 29.629,-66.18 66.18,-66.18 36.55,0 66.183,29.629 66.183,66.18 z"
           style="fill:none;stroke:#000000;stroke-width:0.57662398;stroke-linecap:round;stroke-linejoin:round;stroke-miterlimit:4;stroke-dasharray:none;stroke-opacity:1"
           id="path260"
           inkscape:connector-curvature="0" /></g><path
         d="m 220.27,383.125 c 0,-0.555 -0.45,-1.008 -1.008,-1.008 -0.555,0 -1.004,0.453 -1.004,1.008 0,0.555 0.449,1.004 1.004,1.004 0.558,0 1.008,-0.449 1.008,-1.004 z"
         style="fill:#b2fdff;fill-opacity:0.50980398;fill-rule:nonzero;stroke:none"
         id="path262"
         inkscape:connector-curvature="0" /><g
         id="g264"
         transform="matrix(1,0,0,-1,0,480)"><path
           d="m 220.27,96.875 c 0,0.555 -0.45,1.008 -1.008,1.008 -0.555,0 -1.004,-0.453 -1.004,-1.008 0,-0.555 0.449,-1.004 1.004,-1.004 0.558,0 1.008,0.449 1.008,1.004 z"
           style="fill:none;stroke:#000000;stroke-width:1.22580194;stroke-linecap:butt;stroke-linejoin:miter;stroke-miterlimit:4;stroke-dasharray:none;stroke-opacity:1"
           id="path266"
           inkscape:connector-curvature="0" /></g><path
         d="m 359.102,448.996 c -36.551,0 -66.168,-29.652 -66.168,-66.203 0,-36.551 29.617,-66.168 66.168,-66.168 36.55,0 66.168,29.617 66.168,66.168 0,36.551 -29.618,66.203 -66.168,66.203 z m 0,-19.5 c 25.773,0 46.632,-20.934 46.632,-46.703 0,-25.773 -20.859,-46.637 -46.632,-46.637 -25.774,0 -46.672,20.864 -46.672,46.637 0,25.769 20.898,46.703 46.672,46.703 z"
         style="fill:#b2fdff;fill-opacity:0.51111103;fill-rule:nonzero;stroke:none"
         id="path268"
         inkscape:connector-curvature="0" /><g
         id="g270"
         transform="matrix(1,0,0,-1,0,480)"><path
           d="m 359.102,31.004 c -36.551,0 -66.168,29.652 -66.168,66.203 0,36.551 29.617,66.168 66.168,66.168 36.55,0 66.168,-29.617 66.168,-66.168 0,-36.551 -29.618,-66.203 -66.168,-66.203 z m 0,19.5 c 25.773,0 46.632,20.934 46.632,46.703 0,25.773 -20.859,46.637 -46.632,46.637 -25.774,0 -46.672,-20.864 -46.672,-46.637 0,-25.769 20.898,-46.703 46.672,-46.703 z"
           style="fill:none;stroke:#000000;stroke-width:0.57662398;stroke-linecap:round;stroke-linejoin:round;stroke-miterlimit:4;stroke-dasharray:none;stroke-opacity:1"
           id="path272"
           inkscape:connector-curvature="0" /></g><g
         id="g274"
         transform="matrix(1,0,0,-1,0,480)"><path
           d="M 361.152,30.984 V 50.68"
           style="fill:none;stroke:#000000;stroke-width:1.15324903;stroke-linecap:butt;stroke-linejoin:miter;stroke-miterlimit:4;stroke-dasharray:none;stroke-opacity:1"
           id="path276"
           inkscape:connector-curvature="0" /></g><g
         id="g278"
         transform="matrix(1,0,0,-1,0,480)"><path
           d="m 361.152,143.633 v 19.695"
           style="fill:none;stroke:#000000;stroke-width:1.15324903;stroke-linecap:butt;stroke-linejoin:miter;stroke-miterlimit:4;stroke-dasharray:none;stroke-opacity:1"
           id="path280"
           inkscape:connector-curvature="0" /></g><g
         id="g282"
         transform="matrix(1,0,0,-1,0,480)"><path
           d="m 219.277,31.668 v 131.93"
           style="fill:none;stroke:#000000;stroke-width:1.15324903;stroke-linecap:butt;stroke-linejoin:miter;stroke-miterlimit:4;stroke-dasharray:none;stroke-opacity:1"
           id="path284"
           inkscape:connector-curvature="0" /></g><path
         d="m 13.836,265.715 c -1.484,-0.953 -2.094,-1.469 -2.828,-2.391 -1.422,-1.75 -2.125,-3.75 -2.125,-6.078 0,-2.547 0.75,-4.5 2.5,-6.547 0.828,-0.953 1.344,-1.406 2.39,-2.047 l 0.235,0.328 c -1.594,1.266 -2.156,1.954 -2.703,3.454 -0.469,1.343 -0.688,2.859 -0.688,4.859 0,2.109 0.25,3.75 0.797,4.984 0.563,1.235 1.156,1.969 2.594,3.125 z"
         style="fill:#000000;fill-opacity:1;fill-rule:nonzero;stroke:none"
         id="path286"
         inkscape:connector-curvature="0" /><path
         d="m 17.672,265.824 -0.11,0.031 c -0.828,-0.296 -1.374,-0.453 -2.312,-0.718 l -0.578,-0.157 v -0.328 c 0.125,0.032 0.203,0.032 0.344,0.032 0.796,0 0.968,-0.188 0.968,-1.032 v -10.375 c 0,-0.625 1.704,-1.281 3.313,-1.281 2.625,0 4.672,2.203 4.672,5.063 0,2.453 -1.516,4.343 -3.516,4.343 -1.219,0 -2.391,-0.718 -2.781,-1.703 z m 0,-7.187 c 0,0.781 0.937,1.5 1.984,1.5 1.547,0 2.547,-1.563 2.547,-4 0,-2.219 -0.953,-3.5 -2.594,-3.5 -1.047,0 -1.937,0.468 -1.937,0.968 z"
         style="fill:#000000;fill-opacity:1;fill-rule:nonzero;stroke:none"
         id="path288"
         inkscape:connector-curvature="0" /><path
         d="m 25.375,248.652 c 1.469,0.969 2.078,1.485 2.813,2.407 1.421,1.734 2.124,3.734 2.124,6.078 0,2.562 -0.75,4.5 -2.5,6.547 -0.828,0.953 -1.343,1.39 -2.39,2.031 l -0.234,-0.313 c 1.609,-1.265 2.14,-1.968 2.703,-3.468 0.484,-1.329 0.703,-2.86 0.703,-4.86 0,-2.078 -0.266,-3.734 -0.797,-4.953 -0.563,-1.266 -1.172,-1.984 -2.609,-3.141 z"
         style="fill:#000000;fill-opacity:1;fill-rule:nonzero;stroke:none"
         id="path290"
         inkscape:connector-curvature="0" /><g
         id="g292"
         transform="matrix(1,0,0,-1,0,480)"><path
           d="M 74.074,169.621 73.883,11.91"
           style="fill:none;stroke:#000000;stroke-width:0.75;stroke-linecap:round;stroke-linejoin:miter;stroke-miterlimit:4;stroke-dasharray:none;stroke-opacity:1"
           id="path294"
           inkscape:connector-curvature="0" /></g><g
         id="g296"
         transform="matrix(0.0012012,-1,-1,-0.0012012,0,480)"><path
           d="m 14.999,-73.869 1.502,-1.502 -5.252,1.502 5.252,1.498 z"
           style="fill:#000000;fill-opacity:1;fill-rule:evenodd;stroke:#000000;stroke-width:0.40000001;stroke-linecap:butt;stroke-linejoin:miter;stroke-miterlimit:4;stroke-dasharray:none;stroke-opacity:1"
           id="path298"
           inkscape:connector-curvature="0" /></g><g
         id="g300"
         transform="matrix(1,0,0,-1,0,480)"><path
           d="M 74.289,97.324 H 468.137"
           style="fill:none;stroke:#000000;stroke-width:0.37417299;stroke-linecap:round;stroke-linejoin:miter;stroke-miterlimit:4;stroke-dasharray:none;stroke-opacity:1"
           id="path302"
           inkscape:connector-curvature="0" /></g><g
         id="g304"
         transform="matrix(-1,0,0,1,0,480)"><path
           d="m -464.395,-97.324 1.497,-1.5 -5.239,1.5 5.239,1.496 z"
           style="fill:#000000;fill-opacity:1;fill-rule:evenodd;stroke:#000000;stroke-width:0.39911801;stroke-linecap:butt;stroke-linejoin:miter;stroke-miterlimit:4;stroke-dasharray:none;stroke-opacity:1"
           id="path306"
           inkscape:connector-curvature="0" /></g><g
         id="g308"
         transform="matrix(1,0,0,-1,0,480)"><path
           d="m 139.336,31.125 h 240.59 l -65.528,66.148 65.528,66.153 H 139.336 L 73.805,97.273 Z"
           style="fill:none;stroke:#000000;stroke-width:0.57662499;stroke-linecap:round;stroke-linejoin:round;stroke-miterlimit:4;stroke-dasharray:none;stroke-opacity:1"
           id="path310"
           inkscape:connector-curvature="0" /></g><g
         id="g312"
         transform="matrix(1,0,0,-1,0,480)"><path
           d="m 244.406,98.504 v 63.621"
           style="fill:none;stroke:#000000;stroke-width:0.75;stroke-linecap:butt;stroke-linejoin:miter;stroke-miterlimit:4;stroke-dasharray:none;stroke-opacity:1"
           id="path314"
           inkscape:connector-curvature="0" /></g><g
         id="g316"
         transform="matrix(0,-1,-1,0,0,480)"><path
           d="m 101.504,-244.406 1.5,-1.5 -5.25,1.5 5.25,1.5 z"
           style="fill:#000000;fill-opacity:1;fill-rule:evenodd;stroke:#000000;stroke-width:0.40000001;stroke-linecap:butt;stroke-linejoin:miter;stroke-miterlimit:4;stroke-dasharray:none;stroke-opacity:1"
           id="path318"
           inkscape:connector-curvature="0" /></g><g
         id="g320"
         transform="matrix(0,1,1,0,0,480)"><path
           d="m -159.125,244.406 1.5,-1.5 -5.25,1.5 5.25,1.5 z"
           style="fill:#000000;fill-opacity:1;fill-rule:evenodd;stroke:#000000;stroke-width:0.40000001;stroke-linecap:butt;stroke-linejoin:miter;stroke-miterlimit:4;stroke-dasharray:none;stroke-opacity:1"
           id="path322"
           inkscape:connector-curvature="0" /></g><path
         d="m 248.289,359.055 -0.008,-0.043 -0.035,-0.117 -0.008,-0.036 -0.023,-0.062 -0.012,-0.027 -0.015,-0.028 -0.012,-0.027 -0.031,-0.047 -0.02,-0.02 -0.023,-0.015 -0.02,-0.02 -0.055,-0.031 -0.027,-0.012 -0.035,-0.011 -0.035,-0.016 -0.039,-0.008 -0.024,-0.004 -0.019,-0.004 -0.094,-0.015 h -0.027 l -0.055,-0.008 -0.031,-0.004 h -0.063 l -0.031,-0.004 h -0.035 l -0.035,-0.004 h -0.278 c -0.203,0 -0.336,0 -0.336,-0.23 0,-0.145 0.106,-0.145 0.336,-0.145 h 3.973 l -0.215,0.375 h -1.355 c -0.168,0 -0.192,0 -0.27,0.008 -0.113,0.012 -0.152,0.023 -0.152,0.121 0,0.035 0,0.063 0.058,0.274 l 1.649,6.597 c 0.101,0.418 0.129,0.453 0.644,0.453 h 1.285 c 1.18,0 2.172,-0.636 2.172,-2.222 0,-0.586 -0.238,-2.555 -1.261,-3.875 -0.344,-0.446 -1.293,-1.356 -2.77,-1.356 l 0.215,-0.375 c 2.496,0 4.863,2.535 4.863,5.164 0,1.696 -1.019,3.039 -2.824,3.039 h -4.031 c -0.231,0 -0.364,0 -0.364,-0.23 0,-0.145 0.11,-0.145 0.352,-0.145 0.152,0 0.371,-0.007 0.516,-0.019 0.191,-0.028 0.265,-0.063 0.265,-0.196 0,-0.046 -0.011,-0.085 -0.051,-0.226 z"
         style="fill:#000000;fill-opacity:1;fill-rule:nonzero;stroke:none"
         id="path324"
         inkscape:connector-curvature="0" /><path
         d="m 259.977,357.008 -0.004,-0.02 -0.008,-0.015 -0.004,-0.016 v -0.016 l -0.008,-0.019 -0.012,-0.059 -0.011,-0.039 -0.008,-0.039 -0.012,-0.039 -0.004,-0.016 -0.008,-0.039 -0.007,-0.015 v -0.02 l -0.004,-0.015 -0.008,-0.016 v -0.016 l -0.004,-0.015 -0.004,-0.012 -0.004,-0.016 v -0.011 l -0.004,-0.008 -0.004,-0.012 v -0.023 c 0,-0.188 0.153,-0.27 0.282,-0.27 0.152,0 0.285,0.11 0.328,0.184 0.047,0.078 0.109,0.344 0.152,0.519 0.043,0.16 0.133,0.547 0.188,0.758 0.046,0.188 0.093,0.367 0.14,0.563 0.094,0.359 0.094,0.375 0.262,0.636 0.266,0.414 0.687,0.891 1.34,0.891 0.472,0 0.5,-0.387 0.5,-0.59 0,-0.5 -0.363,-1.433 -0.5,-1.785 -0.09,-0.238 -0.125,-0.313 -0.125,-0.457 0,-0.441 0.371,-0.719 0.801,-0.719 0.839,0 1.207,1.156 1.207,1.285 0,0.11 -0.11,0.11 -0.137,0.11 -0.113,0 -0.121,-0.051 -0.156,-0.145 -0.192,-0.672 -0.555,-1.015 -0.891,-1.015 -0.176,0 -0.207,0.117 -0.207,0.293 0,0.191 0.039,0.3 0.187,0.679 0.102,0.262 0.446,1.153 0.446,1.621 0,0.133 0,0.489 -0.309,0.731 -0.14,0.109 -0.387,0.226 -0.781,0.226 -0.754,0 -1.215,-0.496 -1.484,-0.847 -0.067,0.715 -0.668,0.847 -1.09,0.847 -0.7,0 -1.172,-0.425 -1.422,-0.761 -0.059,0.578 -0.555,0.761 -0.902,0.761 -0.36,0 -0.551,-0.261 -0.661,-0.453 -0.183,-0.308 -0.3,-0.793 -0.3,-0.832 0,-0.109 0.117,-0.109 0.144,-0.109 0.113,0 0.121,0.027 0.184,0.254 0.125,0.496 0.285,0.906 0.613,0.906 0.215,0 0.273,-0.184 0.273,-0.41 0,-0.16 -0.074,-0.469 -0.132,-0.695 -0.059,-0.231 -0.141,-0.575 -0.188,-0.758 l -0.266,-1.078 c -0.035,-0.106 -0.082,-0.317 -0.082,-0.34 0,-0.188 0.149,-0.27 0.286,-0.27 0.148,0 0.281,0.11 0.324,0.184 0.047,0.078 0.113,0.344 0.152,0.519 0.043,0.16 0.133,0.547 0.184,0.758 0.051,0.188 0.105,0.367 0.144,0.563 0.09,0.347 0.11,0.41 0.352,0.757 0.238,0.332 0.633,0.77 1.262,0.77 0.484,0 0.492,-0.43 0.492,-0.59 0,-0.207 -0.024,-0.316 -0.145,-0.789 z"
         style="fill:#000000;fill-opacity:1;fill-rule:nonzero;stroke:none"
         id="path326"
         inkscape:connector-curvature="0" /><path
         d="m 268.406,359.531 -0.019,0.028 -0.016,0.027 -0.019,0.023 -0.016,0.024 -0.024,0.023 -0.019,0.028 -0.02,0.019 -0.019,0.024 -0.027,0.023 -0.02,0.02 -0.047,0.039 -0.027,0.019 -0.024,0.02 -0.027,0.019 -0.023,0.016 -0.032,0.015 -0.054,0.032 -0.028,0.011 -0.031,0.016 -0.062,0.023 -0.063,0.016 -0.07,0.016 -0.035,0.004 -0.036,0.007 h -0.035 l -0.039,0.004 h -0.035 v -0.234 c 0.59,0 0.75,-0.637 0.75,-0.731 0,-0.035 -0.019,-0.093 -0.027,-0.117 l -0.395,-1.57 c -0.058,-0.234 -0.242,-0.402 -0.426,-0.563 -0.074,-0.066 -0.414,-0.335 -0.777,-0.335 -0.309,0 -0.609,0.218 -0.609,0.812 0,0.449 0.242,1.371 0.437,1.707 0.383,0.676 0.813,0.797 1.047,0.797 v 0.234 c -1.074,0 -2.168,-1.183 -2.168,-2.39 0,-0.817 0.547,-1.395 1.274,-1.395 0.453,0 0.855,0.262 1.187,0.59 0.164,-0.508 0.648,-0.59 0.867,-0.59 0.301,0 0.512,0.184 0.66,0.446 0.188,0.328 0.297,0.804 0.297,0.839 0,0.11 -0.109,0.11 -0.133,0.11 -0.121,0 -0.128,-0.035 -0.183,-0.262 -0.106,-0.402 -0.266,-0.898 -0.613,-0.898 -0.223,0 -0.282,0.183 -0.282,0.41 0,0.14 0.067,0.449 0.129,0.668 0.059,0.222 0.145,0.566 0.184,0.75 l 0.168,0.64 c 0.051,0.219 0.148,0.614 0.148,0.657 0,0.183 -0.148,0.265 -0.281,0.265 -0.145,0 -0.34,-0.101 -0.387,-0.336 z"
         style="fill:#000000;fill-opacity:1;fill-rule:nonzero;stroke:none"
         id="path328"
         inkscape:connector-curvature="0" /><path
         d="m 272.156,357.215 -0.015,-0.055 -0.012,-0.031 -0.012,-0.027 -0.012,-0.032 -0.031,-0.062 -0.015,-0.028 -0.016,-0.031 -0.039,-0.062 -0.02,-0.028 -0.023,-0.031 -0.02,-0.031 -0.027,-0.027 -0.023,-0.032 -0.024,-0.027 -0.027,-0.027 -0.055,-0.047 -0.062,-0.047 -0.063,-0.039 -0.035,-0.016 -0.031,-0.015 -0.071,-0.024 -0.039,-0.008 -0.035,-0.008 -0.039,-0.003 h -0.043 c -0.023,0 -0.277,0 -0.453,0.117 0.348,0.105 0.367,0.414 0.367,0.461 0,0.187 -0.14,0.312 -0.336,0.312 -0.23,0 -0.476,-0.199 -0.476,-0.515 0,-0.418 0.472,-0.61 0.879,-0.61 0.39,0 0.734,0.242 0.945,0.598 0.199,-0.449 0.66,-0.598 0.996,-0.598 0.969,0 1.481,1.047 1.481,1.285 0,0.11 -0.11,0.11 -0.137,0.11 -0.113,0 -0.125,-0.043 -0.156,-0.145 -0.176,-0.578 -0.68,-1.015 -1.153,-1.015 -0.336,0 -0.512,0.222 -0.512,0.543 0,0.222 0.204,0.984 0.438,1.921 0.168,0.641 0.547,0.852 0.824,0.852 0.012,0 0.274,0 0.453,-0.117 -0.269,-0.074 -0.371,-0.313 -0.371,-0.461 0,-0.188 0.145,-0.313 0.336,-0.313 0.196,0 0.469,0.16 0.469,0.516 0,0.469 -0.535,0.609 -0.875,0.609 -0.414,0 -0.754,-0.273 -0.938,-0.597 -0.152,0.347 -0.535,0.597 -1.007,0.597 -0.942,0 -1.477,-1.031 -1.477,-1.285 0,-0.109 0.117,-0.109 0.141,-0.109 0.109,0 0.117,0.035 0.16,0.144 0.207,0.653 0.738,1.016 1.152,1.016 0.278,0 0.504,-0.148 0.504,-0.551 0,-0.172 -0.101,-0.59 -0.176,-0.875 z"
         style="fill:#000000;fill-opacity:1;fill-rule:nonzero;stroke:none"
         id="path330"
         inkscape:connector-curvature="0" /><text
         xml:space="preserve"
         style="font-style:normal;font-variant:normal;font-weight:normal;font-stretch:normal;font-size:16px;line-height:1.25;font-family:'Nimbus Roman No9 L';-inkscape-font-specification:'Nimbus Roman No9 L, Normal';font-variant-ligatures:normal;font-variant-caps:normal;font-variant-numeric:normal;font-feature-settings:normal;text-align:start;letter-spacing:0px;word-spacing:0px;writing-mode:lr-tb;text-anchor:start;fill:#4d4d4d;fill-opacity:1;stroke:none;stroke-width:0.75;"
         x="402.48886"
         y="-199.48689"
         id="text1139"
         transform="scale(1,-1)"><tspan
           sodipodi:role="line"
           id="tspan1137"
           x="402.48886"
           y="-199.48689"
           style="stroke-width:0.75;fill:#4d4d4d;fill-opacity:1;">E<tspan
   style="font-size:64.99999762%;baseline-shift:sub;fill:#4d4d4d;fill-opacity:1;"
   id="tspan1147">1</tspan></tspan></text>
<text
         xml:space="preserve"
         style="font-style:normal;font-variant:normal;font-weight:normal;font-stretch:normal;font-size:16px;line-height:1.25;font-family:'Nimbus Roman No9 L';-inkscape-font-specification:'Nimbus Roman No9 L, Normal';font-variant-ligatures:normal;font-variant-caps:normal;font-variant-numeric:normal;font-feature-settings:normal;text-align:start;letter-spacing:0px;word-spacing:0px;writing-mode:lr-tb;text-anchor:start;fill:#4d4d4d;fill-opacity:1;stroke:none;stroke-width:0.75;"
         x="450.50848"
         y="-199.32204"
         id="text1143"
         transform="scale(1,-1)"><tspan
           sodipodi:role="line"
           id="tspan1141"
           x="450.50848"
           y="-199.32204"
           style="stroke-width:0.75;fill:#4d4d4d;fill-opacity:1;">E<tspan
   style="font-size:64.99999762%;baseline-shift:sub;fill:#4d4d4d;fill-opacity:1;"
   id="tspan1145">2</tspan></tspan></text>
<text
         xml:space="preserve"
         style="font-style:normal;font-variant:normal;font-weight:normal;font-stretch:normal;font-size:45.20293427px;line-height:1.25;font-family:'Nimbus Roman No9 L';-inkscape-font-specification:'Nimbus Roman No9 L, Normal';font-variant-ligatures:normal;font-variant-caps:normal;font-variant-numeric:normal;font-feature-settings:normal;text-align:start;letter-spacing:0px;word-spacing:0px;writing-mode:lr-tb;text-anchor:start;fill:#000000;fill-opacity:1;stroke:none;stroke-width:2.11888742"
         x="68.12529"
         y="-380.66022"
         id="text1151"
         transform="scale(1,-1)"><tspan
           sodipodi:role="line"
           id="tspan1149"
           x="68.12529"
           y="-380.66022"
           style="stroke-width:2.11888742">.</tspan></text>
<text
         xml:space="preserve"
         style="font-style:normal;font-variant:normal;font-weight:normal;font-stretch:normal;font-size:16px;line-height:1.25;font-family:'Nimbus Roman No9 L';-inkscape-font-specification:'Nimbus Roman No9 L, Normal';font-variant-ligatures:normal;font-variant-caps:normal;font-variant-numeric:normal;font-feature-settings:normal;text-align:start;letter-spacing:0px;word-spacing:0px;writing-mode:lr-tb;text-anchor:start;fill:#4d4d4d;fill-opacity:1;stroke:none;stroke-width:0.75"
         x="318.26044"
         y="63.513477"
         id="text1173"
         transform="matrix(0,1,1,0,0,0)"><tspan
           sodipodi:role="line"
           id="tspan1171"
           x="318.26044"
           y="63.513477"
           style="fill:#4d4d4d;fill-opacity:1;stroke-width:0.75">A event</tspan></text>
<text
         xml:space="preserve"
         style="font-style:normal;font-variant:normal;font-weight:normal;font-stretch:normal;font-size:16px;line-height:1.25;font-family:'Nimbus Roman No9 L';-inkscape-font-specification:'Nimbus Roman No9 L, Normal';font-variant-ligatures:normal;font-variant-caps:normal;font-variant-numeric:normal;font-feature-settings:normal;text-align:start;letter-spacing:0px;word-spacing:0px;writing-mode:lr-tb;text-anchor:start;fill:#4d4d4d;fill-opacity:1;stroke:none;stroke-width:0.75"
         x="336.71997"
         y="-364.30344"
         id="text1177"
         transform="scale(1,-1)"><tspan
           sodipodi:role="line"
           id="tspan1175"
           x="336.71997"
           y="-364.30344"
           style="fill:#4d4d4d;fill-opacity:1;stroke-width:0.75">D event</tspan></text>
<path
         style="fill:none;stroke:#4d4d4d;stroke-width:0.75px;stroke-linecap:butt;stroke-linejoin:miter;stroke-opacity:1;marker-end:url(#Arrow1Send)"
         d="m 59.594722,371.32096 c 0.08989,4.22466 -1.438184,10.96614 9.707737,11.05603"
         id="path1179"
         inkscape:connector-curvature="0" /><path
         style="fill:none;stroke:#4d4d4d;stroke-width:0.75px;stroke-linecap:butt;stroke-linejoin:miter;stroke-opacity:1;marker-end:url(#Arrow1Send-7)"
         d="m 334.46134,368.80295 c -4.98396,3.08059 -4.53638,8.55088 -12.2501,11.75518"
         id="path1179-3"
         inkscape:connector-curvature="0"
         sodipodi:nodetypes="cc" /><text
         xml:space="preserve"
         style="font-style:normal;font-variant:normal;font-weight:normal;font-stretch:normal;font-size:15.99999905px;line-height:1.25;font-family:'Nimbus Roman No9 L';-inkscape-font-specification:'Nimbus Roman No9 L, Normal';font-variant-ligatures:normal;font-variant-caps:normal;font-variant-numeric:normal;font-feature-settings:normal;text-align:start;letter-spacing:0px;word-spacing:0px;writing-mode:lr-tb;text-anchor:start;fill:#4d4d4d;fill-opacity:1;stroke:none;stroke-width:0.75"
         x="88.409073"
         y="-299.3923"
         id="text1177-5"
         transform="scale(1,-1)"><tspan
           sodipodi:role="line"
           id="tspan1175-6"
           x="88.409073"
           y="-299.3923"
           style="fill:#4d4d4d;fill-opacity:1;stroke-width:0.75">SFC</tspan></text>
<text
         xml:space="preserve"
         style="font-style:normal;font-variant:normal;font-weight:normal;font-stretch:normal;font-size:15.99999905px;line-height:1.25;font-family:'Nimbus Roman No9 L';-inkscape-font-specification:'Nimbus Roman No9 L, Normal';font-variant-ligatures:normal;font-variant-caps:normal;font-variant-numeric:normal;font-feature-settings:normal;text-align:start;letter-spacing:0px;word-spacing:0px;writing-mode:lr-tb;text-anchor:start;fill:#4d4d4d;fill-opacity:1;stroke:none;stroke-width:0.75"
         x="286.96494"
         y="-458.68707"
         id="text1177-5-2"
         transform="scale(1,-1)"><tspan
           sodipodi:role="line"
           id="tspan1175-6-9"
           x="286.96494"
           y="-458.68707"
           style="fill:#4d4d4d;fill-opacity:1;stroke-width:0.75">SLC</tspan></text>
<path
         style="fill:none;stroke:#000000;stroke-width:0.75px;stroke-linecap:butt;stroke-linejoin:miter;stroke-opacity:1;marker-end:url(#Arrow1Mend)"
         d="M 305.84747,455.59323 341.8856,413.1356"
         id="path3398"
         inkscape:connector-curvature="0"
         sodipodi:nodetypes="cc" /><path
         style="fill:none;stroke:#000000;stroke-width:0.75px;stroke-linecap:butt;stroke-linejoin:miter;stroke-opacity:1;marker-end:url(#Arrow1Mend-1)"
         d="m 103.42532,313.78954 19.76695,15.76271"
         id="path3398-7"
         inkscape:connector-curvature="0"
         sodipodi:nodetypes="cc" /><path
         style="fill:none;stroke:#008080;stroke-width:1.27500003;stroke-linecap:butt;stroke-linejoin:miter;stroke-opacity:1;stroke-miterlimit:4;stroke-dasharray:none"
         d="M 139.336,316.574 74.289,382.67599 139.336,448.875"
         id="path4325"
         inkscape:connector-curvature="0" /><path
         inkscape:connector-curvature="0"
         id="path4327"
         d="m 379.926,316.574 -65.047,66.10199 65.047,66.19901"
         style="fill:none;stroke:#008080;stroke-width:1.27499998;stroke-linecap:butt;stroke-linejoin:miter;stroke-miterlimit:4;stroke-dasharray:none;stroke-opacity:1" /><text
         xml:space="preserve"
         style="font-style:normal;font-variant:normal;font-weight:normal;font-stretch:normal;font-size:45.20293427px;line-height:1.25;font-family:'Nimbus Roman No9 L';-inkscape-font-specification:'Nimbus Roman No9 L, Normal';font-variant-ligatures:normal;font-variant-caps:normal;font-variant-numeric:normal;font-feature-settings:normal;text-align:start;letter-spacing:0px;word-spacing:0px;writing-mode:lr-tb;text-anchor:start;fill:#000000;fill-opacity:1;stroke:none;stroke-width:2.11888742"
         x="309.49979"
         y="-380.65427"
         id="text1151-3"
         transform="scale(1,-1)"><tspan
           sodipodi:role="line"
           id="tspan1149-6"
           x="309.49979"
           y="-380.65427"
           style="stroke-width:2.11888742">.</tspan></text>
</g></g></svg>